<?xml version="1.0" standalone="no"?>
<!DOCTYPE svg PUBLIC "-//W3C//DTD SVG 20010904//EN"
 "http://www.w3.org/TR/2001/REC-SVG-20010904/DTD/svg10.dtd">
<svg version="1.0" xmlns="http://www.w3.org/2000/svg"
 width="900.000000pt" height="900.000000pt" viewBox="0 0 900.000000 900.000000"
 preserveAspectRatio="xMidYMid meet">

<g transform="translate(0.000000,900.000000) scale(0.100000,-0.100000)"
fill="#000000" stroke="none">
<path d="M0 4500 l0 -4500 4500 0 4500 0 0 4500 0 4500 -4500 0 -4500 0 0
-4500z m7274 1595 c182 -39 276 -146 280 -320 l1 -70 -107 -3 -108 -3 0 28 c0
93 -56 159 -149 178 -122 26 -228 -22 -281 -125 -25 -49 -37 -118 -55 -311
-18 -195 -19 -299 -4 -352 13 -47 63 -106 106 -123 40 -17 132 -18 187 -2 57
17 121 84 139 145 l14 48 108 3 108 3 -7 -41 c-18 -113 -83 -224 -166 -283
-169 -118 -471 -112 -612 12 -59 53 -95 123 -109 213 -21 134 8 209 87 224 24
4 34 12 34 25 0 18 -10 19 -185 19 l-186 0 6 78 c4 42 8 83 10 90 3 9 37 12
124 12 135 0 141 3 141 75 0 110 61 271 134 352 105 117 301 168 490 128z
m-974 -294 c0 -26 -3 -69 -6 -95 l-7 -46 -267 0 -267 0 -12 -137 c-7 -76 -14
-155 -17 -175 l-6 -38 243 0 242 0 -7 -52 c-3 -29 -6 -68 -6 -85 l0 -33 -240
0 -240 0 -4 -22 c-7 -33 -26 -259 -26 -307 l0 -41 266 0 267 0 -7 -52 c-3 -29
-6 -70 -6 -90 l0 -38 -380 0 c-209 0 -380 4 -380 8 0 4 9 102 20 217 22 236
27 250 98 273 30 10 42 19 42 33 0 18 -10 19 -186 19 l-187 0 7 46 c3 26 6 64
6 85 l0 39 119 0 c131 0 151 8 151 58 0 15 9 128 20 252 11 123 20 226 20 227
0 2 169 3 375 3 l375 0 0 -49z m-1880 -214 c0 -33 -25 -333 -36 -439 l-7 -58
225 0 c169 0 228 3 235 13 6 6 18 104 27 217 9 113 19 226 23 253 l6 47 109 0
109 0 -6 -47 c-3 -27 -26 -282 -50 -568 -25 -286 -48 -548 -52 -582 l-6 -63
-110 0 -109 0 6 53 c3 28 13 127 21 219 7 92 19 175 26 186 16 25 61 52 87 52
11 0 22 8 25 20 5 20 0 20 -289 20 l-294 0 -1 -32 c0 -18 -10 -141 -22 -273
l-22 -240 -108 -3 c-106 -3 -107 -2 -107 20 0 66 33 397 43 422 12 32 60 66
95 66 15 0 22 6 22 20 0 19 -7 20 -186 20 l-187 0 7 61 c3 34 6 75 6 90 l0 29
125 0 c121 0 126 1 134 23 4 12 16 121 25 242 10 121 20 230 23 243 5 21 10
22 109 22 l104 0 0 -33z m-825 -212 c67 -25 146 -104 168 -169 21 -61 22 -176
2 -242 -37 -124 -126 -218 -244 -254 -52 -16 -92 -20 -221 -20 l-158 0 -6 -42
c-3 -24 -13 -128 -21 -233 -8 -104 -18 -209 -21 -232 l-5 -43 -110 0 -110 0 5
33 c3 17 10 93 16 167 21 265 25 276 105 303 22 8 41 21 43 30 3 15 -15 17
-188 17 l-191 0 5 33 c3 17 8 58 11 90 l6 57 124 0 c109 0 124 2 129 18 4 15
19 167 42 435 l7 79 281 -4 c243 -4 288 -7 331 -23z m-1001 -252 c-3 -27 -7
-67 -10 -90 l-5 -43 -267 -2 -267 -3 -12 -130 c-6 -71 -12 -149 -12 -172 l-1
-43 236 0 237 0 -7 -82 c-4 -44 -9 -85 -12 -89 -3 -5 -110 -8 -239 -6 l-234 2
-6 -50 c-7 -63 -25 -274 -25 -297 0 -17 19 -18 265 -18 l265 0 0 -29 c0 -15
-3 -56 -6 -90 l-7 -61 -378 0 -378 0 4 28 c3 15 12 112 21 216 10 123 21 197
30 211 16 24 55 45 83 45 17 0 31 18 31 38 0 4 -84 7 -187 7 l-187 0 2 50 c1
28 5 67 8 88 l6 37 118 0 c82 0 121 4 128 13 5 6 13 46 16 87 4 41 9 95 11
120 12 119 25 267 25 288 l0 22 380 0 380 0 -6 -47z m1010 -1455 c-21 -38 -57
-78 -70 -78 -18 0 -18 11 3 55 13 28 22 35 45 35 21 0 27 -4 22 -12z m302 -89
c29 -8 54 -23 74 -46 36 -40 37 -47 8 -60 -19 -8 -27 -4 -55 25 -31 33 -36 34
-84 30 -75 -8 -111 -47 -117 -126 -4 -50 -1 -62 19 -86 47 -54 156 -43 189 20
15 28 20 29 44 11 24 -17 10 -45 -41 -84 -29 -22 -48 -28 -102 -31 -56 -3 -71
0 -100 20 -53 36 -73 82 -68 151 8 94 60 155 152 178 17 4 31 7 33 8 2 1 23
-4 48 -10z m404 -11 c62 -32 90 -77 90 -145 0 -115 -77 -193 -192 -193 -98 0
-158 61 -158 160 0 90 47 154 136 185 54 20 73 18 124 -7z m-2557 -63 l-6 -76
79 3 79 3 8 73 c8 67 11 72 33 72 22 0 24 -4 23 -47 0 -27 -6 -104 -12 -173
l-12 -125 -29 -3 -28 -4 7 76 7 76 -80 0 -80 0 -7 -75 -7 -75 -30 0 c-27 0
-29 2 -24 28 3 15 11 93 17 175 l12 147 28 0 29 0 -7 -75z m507 -75 c20 -80
40 -157 43 -172 7 -26 5 -28 -22 -28 -25 0 -30 5 -38 38 l-9 37 -76 3 -77 3
-21 -41 c-16 -31 -26 -40 -46 -40 -19 0 -25 4 -20 15 3 8 36 87 73 175 l68
161 44 -3 45 -3 36 -145z m166 63 c-4 -49 -9 -107 -12 -130 -5 -33 -2 -45 15
-62 29 -29 85 -28 115 2 24 24 27 42 42 205 7 72 7 72 36 72 29 0 30 -2 25
-32 -3 -18 -9 -69 -12 -113 -8 -103 -19 -135 -55 -170 -35 -33 -111 -45 -160
-25 -53 22 -63 57 -56 189 9 144 11 151 43 151 l25 0 -6 -87z m544 62 c0 -22
-4 -24 -57 -27 l-58 -3 -7 -85 c-18 -216 -17 -210 -45 -210 l-26 0 7 113 c4
61 10 129 13 150 l6 37 -57 0 c-48 0 -56 3 -56 18 0 10 3 22 7 25 3 4 66 7
140 7 l133 0 0 -25z m266 9 c-3 -9 -6 -20 -6 -25 0 -5 -33 -9 -74 -9 -80 0
-86 -4 -86 -72 0 -28 0 -28 71 -28 61 0 70 -2 65 -16 -3 -9 -6 -20 -6 -25 0
-5 -31 -9 -70 -9 l-70 0 0 -50 0 -50 79 0 c78 0 78 0 73 -25 -4 -25 -5 -25
-108 -25 -100 0 -104 1 -104 22 0 37 22 302 26 316 2 8 33 12 110 12 93 0 105
-2 100 -16z m404 -9 c0 -25 -1 -25 -79 -25 l-78 0 -7 -31 c-13 -68 -13 -69 65
-69 67 0 70 -1 67 -22 -3 -21 -9 -23 -68 -26 -36 -2 -68 -8 -72 -15 -4 -7 -8
-29 -8 -49 l0 -38 80 0 c79 0 86 -3 74 -34 -9 -23 -214 -24 -214 -1 0 27 21
270 26 303 l5 32 104 0 105 0 0 -25z m886 -67 c-3 -51 -9 -119 -12 -150 l-7
-58 83 0 c71 0 81 -2 76 -16 -3 -9 -6 -20 -6 -25 0 -5 -47 -9 -105 -9 -77 0
-105 3 -105 13 0 16 18 219 26 285 5 48 8 52 31 52 l26 0 -7 -92z m424 67 c0
-23 -3 -24 -77 -27 l-78 -3 -3 -47 -3 -48 69 0 c68 0 69 0 64 -25 -4 -24 -8
-25 -73 -25 l-69 0 0 -34 c0 -19 -3 -41 -6 -50 -5 -14 5 -16 75 -16 80 0 81 0
81 -25 l0 -25 -105 0 -105 0 0 33 c0 17 5 96 12 175 l12 142 103 0 c103 0 103
0 103 -25z m-2540 -514 c0 -15 -3 -56 -6 -90 l-7 -61 -477 0 -477 0 4 58 c2
31 6 72 9 90 l5 32 474 0 475 0 0 -29z"/>
<path d="M3179 5173 c0 -21 -6 -98 -12 -171 l-13 -133 151 3 c138 3 153 5 183
26 42 31 63 73 69 141 7 80 -14 126 -69 151 -36 16 -66 20 -175 20 l-133 0 -1
-37z"/>
<path d="M4167 3512 c-15 -9 -37 -36 -48 -60 -54 -110 45 -209 156 -156 39 18
74 76 75 122 0 31 -25 77 -52 96 -29 21 -96 20 -131 -2z"/>
<path d="M2155 3494 c-9 -22 -25 -60 -36 -86 l-19 -48 61 0 c53 0 60 2 55 18
-3 9 -12 46 -21 82 -9 36 -18 67 -20 69 -2 2 -11 -14 -20 -35z"/>
</g>
</svg>
