<svg id="eOTWBKVqtbD1" xmlns="http://www.w3.org/2000/svg" xmlns:xlink="http://www.w3.org/1999/xlink" viewBox="0 0 1164.07 555.93" shape-rendering="geometricPrecision" text-rendering="geometricPrecision"><defs><linearGradient id="eOTWBKVqtbD29-fill" x1="439.31" y1="679.56" x2="439.4" y2="679.56" spreadMethod="pad" gradientUnits="userSpaceOnUse" gradientTransform="translate(0 0)"><stop id="eOTWBKVqtbD29-fill-0" offset="0%" stop-color="rgba(128,128,128,0.25)" /><stop id="eOTWBKVqtbD29-fill-1" offset="54%" stop-color="rgba(128,128,128,0.12)" /><stop id="eOTWBKVqtbD29-fill-2" offset="100%" stop-color="rgba(128,128,128,0.1)" /></linearGradient><linearGradient id="eOTWBKVqtbD30-fill" x1="186.82" y1="533.62" x2="458.12" y2="533.62" spreadMethod="pad" gradientUnits="userSpaceOnUse" gradientTransform="translate(0 0)"><stop id="eOTWBKVqtbD30-fill-0" offset="0%" stop-color="rgba(128,128,128,0.25)" /><stop id="eOTWBKVqtbD30-fill-1" offset="54%" stop-color="rgba(128,128,128,0.12)" /><stop id="eOTWBKVqtbD30-fill-2" offset="100%" stop-color="rgba(128,128,128,0.1)" /></linearGradient><linearGradient id="eOTWBKVqtbD137-fill" x1="803.7" y1="706.12" x2="803.7" y2="383.52" spreadMethod="pad" gradientUnits="userSpaceOnUse" gradientTransform="translate(0 0)"><stop id="eOTWBKVqtbD137-fill-0" offset="0%" stop-color="rgba(128,128,128,0.25)" /><stop id="eOTWBKVqtbD137-fill-1" offset="54%" stop-color="rgba(128,128,128,0.12)" /><stop id="eOTWBKVqtbD137-fill-2" offset="100%" stop-color="rgba(128,128,128,0.1)" /></linearGradient></defs><path d="M1173.17,633.09c-5.576655,10.757593-13.424387,20.174872-23,27.6-1.36,1.09-2.75,2.14-4.16,3.17q-2.85,2-5.84,3.93c-15.49,9.83-33.63,16.55-51.34,21.45q-7.24,2-14.53,3.76-6.15,1.49-12.31,2.78c-1.56.34-3.12.66-4.68,1s-3.35.67-5,1l-2.37.45c-45.82,8.45-92.24,10.06-139,7.94l-2.22-.11-3.55-.18q-14.24-.74-28.51-1.89l-3.6-.29-1.59-.13q-8-.67-16-1.47-10.54-1-21.11-2.21l-.91-.1-.74-.09v0c-25.15-2.83-50.36-6.23-75.6-9.72l-3.57-.5-6.41-.89-5.4-.75v0l-1.6-.22q-12.78-1.79-25.56-3.54l-1.38-.19c-16-2.19-32.09-4.3-48.13-6.22l-2.09-.25v0q-9.85-1.17-19.69-2.23l-5-.53-6.65-.67c-18.43-1.83-36.85-3.29-55.23-4.2q-13.26-.66-26.58-1-11-.25-22-.29-14.92-.07-29.9.17v0h-2.26c-14.07.23-28.17.63-42.28,1.11l-2.54.08h-.84c-30,1.06-60,2.47-89.92,3.48l-7.31.24h-1.06q-15.6.5-31.17.77h-2.75-.09-3.34l-4.64.06q-7.23.07-14.43.08h-5.89c-17.62-.05-35.17-.44-52.61-1.35l-1.94-.11c-33.89-1.83-67.4-5.61-100.31-12.48q-5.11-1.07-10.2-2.24c-22.740918-5.098772-45.069596-11.887626-66.8-20.31-10.24-4-20.54-8.62-28.33-16.44-19.76-20-12.34-59.17,13.37-70.56c20.11-8.91,43.67-1.66,65.3-5.68c1.329056-.253378,2.641477-.587327,3.93-1c2.749762-.886646,5.424826-1.990109,8-3.3.88-.44,1.76-.91,2.65-1.4c2-1.09,4-2.3,5.92-3.62c3.138751-2.087803,6.144558-4.368877,9-6.83q1.9-1.62,3.7-3.36c4.152876-3.901184,7.819421-8.289621,10.92-13.07c1.128963-1.808512,2.131359-3.693018,3-5.64.47-1,.89-2.08,1.24-3.12.522621-1.504782.920629-3.049987,1.19-4.62c1.26-7.42-.78-14.66-7.88-20.78-.635923-.54281-1.303786-1.047046-2-1.51-1.375479-.954122-2.827029-1.793613-4.34-2.51-.61-.29-1.24-.57-1.88-.84-9.14-3.85-20.93-5.33-30.87-8v0c-3.029235-.767994-5.986801-1.795113-8.84-3.07-1.81-.84-3.61-1.72-5.38-2.64v0l-.47-.26v0c-15.114061-7.792649-28.405839-18.698723-39-32-2.6336-3.361315-5.058168-6.881281-7.26-10.54-.67-1.1-1.32-2.23-1.94-3.36-17.57-31.7-19.38-72.32-1.1-103.49c2.220721-3.781608,4.692952-7.409775,7.4-10.86q1.32-1.71,2.73-3.36C74,275.61,99,261.7,124.24,251.4c33.88-13.82,69.35-22.55,105.5-28.3q11-1.75,22-3.14c30.7-3.92,61.76-6,92.6-7.58q43.27-2.19,86.92-2.83q14.79-.2,29.61-.17q33.39,0,66.78,1.29q11,.42,22,1q28.21,1.46,56.31,4q13.5,1.22,26.94,2.69c68.24,7.46,135.49,20.11,200.42,39.78q11.05,3.34,22,7c27.305067,8.989918,54.136249,19.359924,80.39,31.07q3.72,1.67,7.42,3.36q24.59,11.28,48.48,24.31c21.018896,11.311263,41.263437,24.00586,60.6,38q11.32,8.3,22,17.32c12.586738,10.615624,24.32572,22.197462,35.11,34.64q1.44,1.67,2.85,3.36q7.32,8.79,13.9,18.21c21.4,30.76,35.76,65.94,46.36,101.88c9.35,31.36,15.57,66.57.74,95.8Z" transform="translate(-17.96-172.03)" opacity="0.1" fill="#55198b" /><path d="M1159.72,525.81h-85.43v-108.67h38q-1.41-1.69-2.85-3.36h-35.11v-34.64q-10.66-9-22-17.32v52h-196.95v-114.32h87.81q-3.71-1.69-7.42-3.36h-80.39v-31.07q-11-3.63-22-7v38h-281.08l-.67-.64l81.31-77.18q-13.44-1.48-26.94-2.69L549.69,269v-57.4q-11-.58-22-1v62.09l-66.78-63.38q-14.81,0-29.61.17l90.56,85.95-.67.64h-269.43v-76.07q-11,1.39-22,3.14v73h-173.16q-1.41,1.65-2.73,3.36h175.87v114.28h-182.21c.62,1.13,1.27,2.26,1.94,3.36h180.27v108.67h-88.67q-1.8,1.74-3.7,3.36h92.37v111.2q11,1.57,22,3.28v-114.48h275.93v139.33q11,0,22,.29v-139.62h283.69v170.57l.91.1q10.56,1.18,21.11,2.21v-172.88h196.89v168.56c1.68-.31,3.36-.64,5-1s3.12-.63,4.68-1q6.16-1.31,12.31-2.78v-163.78h86.12c-.22-1.12-.44-2.24-.66-3.36Zm-632.05,0h-275.91v-108.67h275.91v108.67Zm0-112h-275.91v-114.31h272l3.88,3.06.03,111.25Zm305.69,112h-283.67v-108.67h283.67v108.67Zm0-112h-283.67v-114.31h283.67v114.31Zm218.91,112h-196.89v-108.67h196.89v108.67Z" transform="translate(-17.96-172.03)" opacity="0.1" fill="#55198b" /><path d="M315.15,679.24c0,.11-.08.22-.11.33v0c0-.11.07-.22.12-.33h-.01Z" transform="translate(-17.96-172.03)" fill="#eaecf0" /><path d="M320.37,674.45h-2.75-.09-3.34l-4.64.06-.51-5.27-.47-5-2.18-22.81-.07-.7v-.31l-.61-6.42l9.34-3.5l1.14,9.31.08.69v.08l2.31,18.9.71,5.8.41,3.37.35,2.89v.1l.32,2.81Z" transform="translate(-17.96-172.03)" fill="#eaecf0" /><polygon points="335.94,507.2 336.05,507.53 335.31,507.53 335.2,507.2 335.94,507.2" fill="#3a3768" /><path d="M439.4,679.55v0v0Z" transform="translate(-17.96-172.03)" fill="#3a3768" /><path d="M498.74,547.48c0,.2,0,.31,0,.31v.12c0,0-8.72,23.83-11.56,44.17q-.29,2-.48,4c-.14,1.41-.25,2.79-.31,4.13-.08,1.57-.1,3.09-.06,4.54c0,.33,0,.67,0,1c0,.67.07,1.36.11,2.07s.1,1.42.16,2.16.12,1.39.19,2.1c2.15,22,10.32,54.21,10.32,54.21s.27.87.62,2.35h-2.26c-14.07.23-28.17.63-42.28,1.11l-2.54.08h-.84c-30,1.06-60,2.47-89.92,3.48l-7.31.24h-1.06q-15.6.5-31.17.77h-2.75c.705487-.994901,1.516908-1.910265,2.42-2.73.759184-.704172,1.579031-1.339972,2.45-1.9c4.752301-2.963471,9.928352-5.185632,15.35-6.59c1.143018-.31248,2.325354-.457325,3.51-.43l7,.14h1.08l10.74.21l92.12,1.83h.23l.65-.13c1.069427-.266474,2.110854-.634824,3.11-1.1c3.519275-1.484823,6.006927-4.700568,6.56-8.48c0-.31.08-.64.1-1c.030136-.4862.030136-.9738,0-1.46c0-.34,0-.7-.08-1.07s-.1-.74-.17-1.12c-2.22-12.41-6-50.61-6-50.61v.12c0,0,0-1.63.09-4.37c0-.21,0-.44,0-.67v-.59c0-.61.07-1.27.11-2c0-.43.06-.87.09-1.33.05-.67.11-1.36.17-2.08-.004789-.043201-.004789-.086799,0-.13q.06-.68.12-1.38c0,0,0-.1,0-.15c1.49-14.75,6.18-38.1,21-46.75c6.95-4.07,11.55-4.89,14.58-4.09c4.42,1.16,5.53,5.76,5.77,8.75c0,.2,0,.39,0,.58.079348.560148.126093,1.124431.14,1.69Z" transform="translate(-17.96-172.03)" fill="#3a3768" /><path d="M315.15,679.24c0,.11-.08.22-.11.33v0c0-.11.07-.22.12-.33h-.01Z" transform="translate(-17.96-172.03)" opacity="0.1" /><polygon points="335.94,507.2 336.05,507.53 335.31,507.53 335.2,507.2 335.94,507.2" opacity="0.1" /><path d="M439.4,679.55v0v0Z" transform="translate(-17.96-172.03)" opacity="0.1" /><path d="M498.74,547.48c0,.2,0,.31,0,.31s-7.19,19.65-10.62,38.49v0q-.36,2-.66,3.87c-.1.64-.19,1.28-.28,1.92q-.29,2-.48,4c-.14,1.41-.25,2.79-.31,4.13-.08,1.57-.1,3.09-.06,4.54c0,.33,0,.67,0,1c0,.67.07,1.36.11,2.07s.1,1.43.16,2.16.12,1.39.19,2.1.14,1.39.22,2.09c.32,2.83.72,5.8,1.18,8.82c3.13,20.37,8.92,43.19,8.92,43.19s.29.92.64,2.46v0h-2.26c-14.07.23-28.17.63-42.28,1.11l-2.54.08h-.84c-30,1.06-60,2.47-89.92,3.48l-7.31.24h-1.06q-15.6.5-31.17.77h-2.75-.09c.726816-1.032328,1.565213-1.981392,2.5-2.83.757737-.716006,1.581393-1.35886,2.46-1.92c4.756588-2.955259,9.931352-5.176868,15.35-6.59c1.144425-.304378,2.32607-.445771,3.51-.42l7,.14h1.08l10.77.21l92.19,1.82h.16c0,0,.27,0,.72-.15c1.079439-.267953,2.128332-.646627,3.13-1.13c3.439374-1.47674,5.881619-4.613534,6.47-8.31c0-.31.08-.64.1-1c.030136-.4862.030136-.9738,0-1.46c0-.34,0-.7-.08-1.07s-.1-.81-.17-1.23c-2.22-12.41-6-50.61-6-50.61s0-1.63.09-4.37c0-.21,0-.44,0-.67v-.59c0-.61.07-1.27.11-2c0-.43.06-.87.09-1.33.05-.67.11-1.36.17-2.08-.004789-.043201-.004789-.086799,0-.13q.06-.68.12-1.38c0,0,0-.1,0-.15.18-1.84.42-3.82.72-5.89c2.08-14.48,7.28-33.39,20.24-41c6.77-4,11.3-4.84,14.34-4.15c4.68,1.07,5.79,5.89,6,8.93c0,.2,0,.39,0,.58.090153.646145.136924,1.297603.14,1.95Z" transform="translate(-17.96-172.03)" opacity="0.1" /><path d="M315.15,679.24c0,.11-.08.22-.11.33v0c0-.11.07-.22.12-.33h-.01Z" transform="translate(-17.96-172.03)" fill="#3a3768" /><polygon points="335.94,507.2 336.05,507.53 335.31,507.53 335.2,507.2 335.94,507.2" fill="#3a3768" /><path d="M439.4,679.55v0v0Z" transform="translate(-17.96-172.03)" fill="#3a3768" /><path d="M496.18,546.63c0,0-13.05,35.66-12.42,57s10.82,61.44,10.82,61.44.44,1.41.91,3.66c-14.07.23-28.17.63-42.28,1.11l-2.54.08h-.84c-30,1.06-60,2.47-89.92,3.48l-7.31.24h-1.06q-15.6.5-31.17.77h-2.75-.09-3.34c1.376194-2.309145,3.25211-4.280736,5.49-5.77l.27-.19c4.761231-2.906547,9.932344-5.080841,15.34-6.45c1.144425-.304378,2.32607-.445771,3.51-.42l9.24.18h1.08l11.13.22L450,663.77c1.283826-.241056,2.530918-.647789,3.71-1.21.391992-.18008.772692-.383788,1.14-.61v0c1.126072-.648826,2.139267-1.476269,3-2.45c1.89-2.15,3.15-5.35,2.31-10-2.23-12.41-6-50.61-6-50.61s-.64-46.48,21.64-59.53c9-5.27,14.06-5.09,16.89-3c.084667.053511.164923.113703.24.18c3.9,3.14,3.25,10.09,3.25,10.09Z" transform="translate(-17.96-172.03)" fill="#3a3768" /><path d="M137.08,634.13l-.36,3.73-2.18,22.89q-5.11-1.07-10.2-2.24l2.55-20.81.86-7.07l9.33,3.5Z" transform="translate(-17.96-172.03)" fill="#eaecf0" /><polygon points="55.12,454.7 109.58,338.79 328.95,355.9 349.17,454.7 55.12,454.7" fill="#efc6cd" /><polygon points="55.12,464.81 55.12,454.7 349.17,454.7 349.17,469.48 55.12,464.81" fill="#d48a9b" /><path d="M156,609.8l131.56,2.68c.591294.013558,1.152302-.261055,1.504302-.736354s.451088-1.092003.265698-1.653646l-20.51-55.32-88.61-1.69L154,606.74c-.297863.67509-.234011,1.455034.169686,2.072689s1.092435.989176,1.830314.987311Z" transform="translate(-17.96-172.03)" fill="#dfe6f5" /><path d="M156,609.8l131.56,2.68c.591294.013558,1.152302-.261055,1.504302-.736354s.451088-1.092003.265698-1.653646l-20.51-55.32-88.61-1.69L154,606.74c-.297863.67509-.234011,1.455034.169686,2.072689s1.092435.989176,1.830314.987311Z" transform="translate(-17.96-172.03)" opacity="0.15" /><path d="M154.94,607.49l132.92,2.8-18.07-54.73c-.597736-1.817475-2.277173-3.060018-4.19-3.1l-85.42-1.62-25.24,56.65Z" transform="translate(-17.96-172.03)" fill="#dfe6f5" /><path d="M165.92,595.1l15.93-35.05c.691629-1.509817,2.199309-2.478482,3.86-2.48h39.59c1.121866,0,2.197783.445659,2.991062,1.238938s1.238938,1.869196,1.238938,2.991062v37.87c-.001442,1.158307-.476701,2.265597-1.315341,3.064571s-1.967641,1.220067-3.124659,1.165429l-55.53-2.83c-1.397656-.070509-2.669978-.827713-3.398498-2.022566s-.818933-2.672684-.241502-3.947434Z" transform="translate(-17.96-172.03)" fill="#4c4c56" /><path d="M244,590.66l.68-20c.037949-1.664236,1.395339-2.99501,3.06-3h11.7c1.483498.007515,2.747918,1.078057,3,2.54l3.44,19.89c.152591.887666-.092323,1.797562-.669874,2.488698s-1.429471,1.093785-2.330126,1.101302l-15.83.14c-.827453-.002262-1.618718-.339532-2.193363-.934902s-.883681-1.398084-.856637-2.225098Z" transform="translate(-17.96-172.03)" fill="#d1d9ec" /><path d="M89,460.58l44.11-3.68c1.323955-.174632,2.603944.54689,3.14,1.77l41.71,94.41-23.28,52.26c.73-1.64,1.27,11.12-4,.06L84.39,467.11c-.89-1.85,2.54-6.27,4.61-6.53Z" transform="translate(-17.96-172.03)" fill="#4c4c56" /><path d="M89,460.58l44.11-3.68c1.323955-.174632,2.603944.54689,3.14,1.77l41.71,94.41-23.28,52.26c.73-1.64,1.27,11.12-4,.06L84.39,467.11c-.89-1.85,2.54-6.27,4.61-6.53Z" transform="translate(-17.96-172.03)" opacity="0.15" /><path d="M89,460.58l46.35-5.92c1.323955-.174632,2.603944.54689,3.14,1.77l41.72,94.41-25.24,56.65L86.63,464.87c-.424966-.877024-.397436-1.905824.073825-2.758866s1.32752-1.424012,2.296175-1.531134Z" transform="translate(-17.96-172.03)" fill="#4c4c56" /><path d="M100.57,467.22L134.08,462c1.379569-.217982,2.727064.544907,3.25,1.84l35.1,85.86c.29082.70904.269034,1.507865-.06,2.2L156.3,585.48c-.445612.953242-1.402745,1.562361-2.455,1.562361s-2.009388-.609119-2.455-1.562361l-53.09-114c-.410126-.859406-.387887-1.862484.059924-2.702869s1.268005-1.418261,2.210076-1.557131Z" transform="translate(-17.96-172.03)" fill="#55198b" /><path d="M439.4,679.55v0v0Z" transform="translate(-17.96-172.03)" fill="url(#eOTWBKVqtbD29-fill)" /><path d="M458.12,660.68c0,0-.69,1.14-1.7,3l-.09.17c-.9,1.6-2,3.7-3.12,6l-2.54.08h-.84c-30,1.06-60,2.47-89.92,3.48l-7.31.24h-1.06q-15.6.5-31.17.77h-2.75-.09-3.34l-4.64.06q-7.23.07-14.43.08h-5.72c-17.62-.05-35.17-.44-52.61-1.35l-1.94-.11c3.43-7.46,9.56-19.69,14.54-23.6c3.85-3,31.5-6.33,56.93-8.77l2.68-.26h.06l7.1-.66c9.73-.89,18.56-1.61,24.86-2.1l.58-.05-3.28-11-4.75-16l1.35-13.44.11-1.08h-.15c-1.35405.143985-2.723055-.027141-4-.5L283.39,594h-.86v0l-18.24-.65v0c-9.78-.35-16.73-.61-17-.66-.287048-.048108-.568484-.125168-.84-.23-.425669-.161568-.818646-.39871-1.16-.7-.398752-.340615-.736875-.746363-1-1.2h-.2-.44l-2.58.17-1.31.09c-.05-.14-.09-.28-.14-.41-.12-.39-.24-.76-.35-1.14h-.69l-9-.19h-.16c0,0-23.22,1.77-35.35-2.65v0c-4.45-1.62-7.41-4.07-7.18-7.74.050467-.834744.225747-1.657211.52-2.44-3.9-7.29,15.15-20.59,29.67-16.92c3.923302,1.121714,8.057311,1.293108,12.06.5c2.172411-.469867,4.218557-1.400864,6-2.73.18-.13.34-.26.49-.39-.24-.15-.49-.28-.72-.4-.995313-.524049-2.064013-.894892-3.17-1.1l3.94-1.15h.06c0,0,14-1.28,23.11-1.79h.06c2.71-.14,5-.23,6.36-.19c6,.17,17.69-4.12,18.19-5.44s5.84,0,5.84,0l4.67-1.82c4.67-1.81,7.34-4.28,7.34-6.1s4.17-3.79,4.17-3.79c1.88-3.16,5.57-6.55,9.44-9.55c3.35-2.59,6.83-4.9,9.41-6.51c1.000118-6.478118,2.335241-12.900061,4-19.24c1.77-5.91,7.26-10.29,9.23-11.71l.72-.48c-.552244-2.490803-1.287574-4.937449-2.2-7.32q-.1-.3-.24-.6c-.2-.47-.41-.93-.62-1.36l-.31-.6c-.51.1-1,.19-1.54.26-1.655679.242701-3.326631.366352-5,.37-15.41052.057139-28.968441-10.167537-33.15-25s0,0,0-.06c-.802239-2.932521-1.205867-5.959731-1.2-9-.004574-2.917794.378785-5.823247,1.14-8.64s0,0,0,0c.15-.6.33-1.19.52-1.78.01886-.068149.042245-.134964.07-.2.09-.27.18-.55.28-.82-1.48018.225011-2.973218.355276-4.47.39h-1c-2.855231.106516-5.702459-.366322-8.37-1.39v0c-.64626-.275415-1.26558-.610182-1.85-1-.030584-.014161-.057842-.034605-.08-.06-.759725-.444017-1.45319-.99273-2.06-1.63c2.247802-1.721706,3.713366-4.27114,4.07-7.08.27-2.16-.09-4.57,1.2-6.33.660487-.794987,1.451857-1.471371,2.34-2c5.32-3.63,9.54-8.61,14.35-12.9s10.63-8,17.1-8.2c8.68-.27,16.32,5.77,24.92,6.91c2.64.35,5.35.23,7.93.89c2.891104.903978,5.611602,2.282815,8.05,4.08c2.202301,1.2525,4.149462,2.907926,5.74,4.88c1.104502,1.710257,1.896782,3.602926,2.34,5.59c1.113824,4.188095,1.784176,8.481702,2,12.81.23,4.53,0,9.09.48,13.59.339822,3.908426,1.660612,7.667862,3.84,10.93h.13c.379725.53318.793944,1.040932,1.24,1.52-.85.27-1.7.51-2.57.72-1.446207.370572-2.91177.661014-4.39.87-.677661.111615-1.363211.168465-2.05.17-.476785.012237-.953363-.031393-1.42-.13l.88.59l2.44,1.64v0l.92.61l1.85,1.23c.42-1.23,1-1.56,1.67-1.48c1.36-1.28,3.39,1.49,3.39,1.49c1.19,2.28,4.39,4.55,7.22,6.23c1.663562.979541,3.375764,1.874024,5.13,2.68c37.37,22.27,35,55.59,37.2,58.23s2.34,12.2,2.34,12.2s5.51,32.49,8,35.3.16,3.79,2.33,6.93s1.67,11.54,1.67,11.54s1.5,19.79,6.84,24.08c4.79,3.85,11.19,36.24,12.46,42.86l.28,1.23Z" transform="translate(-17.96-172.03)" fill="url(#eOTWBKVqtbD30-fill)" /><path d="M239.09,556.44c0,0-5.19,8.17-19.89,4.41s-34.15,10.46-28.6,17.48s41.34-2,41.34-2l13.73-2.78-.9-11.43-5.68-5.68Z" transform="translate(-17.96-172.03)" fill="#d38884" /><path d="M239.09,556.44c0,0-5.19,8.17-19.89,4.41s-34.15,10.46-28.6,17.48s41.34-2,41.34-2l13.73-2.78-.9-11.43-5.68-5.68Z" transform="translate(-17.96-172.03)" opacity="0.1" /><path d="M243.87,556l-6.37-.33-3.92,1.14c0,0,12.42,1.8,9,18.63l13.39-.81L243.87,556Z" transform="translate(-17.96-172.03)" fill="#a36468" /><path d="M243.87,556l-6.37-.33-3.92,1.14c0,0,12.42,1.8,9,18.63l13.39-.81L243.87,556Z" transform="translate(-17.96-172.03)" opacity="0.1" /><path d="M328.19,518.36c0,0-17.48,10-22.39,18.31c0,0-4.08,2-4.08,3.76s-2.62,4.24-7.19,6l-4.58,1.8c0,0-5.23-1.31-5.72,0s-11.92,5.55-17.81,5.39-28.92,2-28.92,2c8.685581,3.942734,13.496788,13.361917,11.6,22.71l54.42-2.28l20.58-4.58l12.1-12.09-8.01-41.02Z" transform="translate(-17.96-172.03)" fill="#444053" /><path d="M328.19,518.36c0,0-17.48,10-22.39,18.31c0,0-4.08,2-4.08,3.76s-2.62,4.24-7.19,6l-4.58,1.8c0,0-5.23-1.31-5.72,0s-11.92,5.55-17.81,5.39-28.92,2-28.92,2c8.685581,3.942734,13.496788,13.361917,11.6,22.71l54.42-2.28l20.58-4.58l12.1-12.09-8.01-41.02Z" transform="translate(-17.96-172.03)" opacity="0.1" /><path d="M248,590.66l-7.7-.15-9-.19c0,0-42.5,3.27-41.67-10.32s33.52-18.36,38.07-14.46c3.45,2.95,11.43,5.33,15.07,6.3c1.16.31,1.87.48,1.87.48L248,590.66Z" transform="translate(-17.96-172.03)" fill="#d38884" /><path d="M248,590.66l-7.7-.15c-3.07-10.55.49-16.36,2.51-18.64c1.16.31,1.87.48,1.87.48L248,590.66Z" transform="translate(-17.96-172.03)" opacity="0.1" /><path d="M253.19,591.24l-8,.56-3.8.26c-5.23-15.36,3.22-21.41,3.22-21.41h2.5l4.09.49l1.99,20.1Z" transform="translate(-17.96-172.03)" fill="#a36468" /><path d="M350.09,489.28l-9.48,18c0,0-1.45-18.23-5.67-26.82-1.08-2.2-2.34-3.76-3.81-4.23-4-1.26,19-26.47,19-26.47.77.16,5.17,3,10.56,6.67c5.93,4,13.07,8.88,17.87,12c9.11,5.81-28.47,20.85-28.47,20.85Z" transform="translate(-17.96-172.03)" fill="#d38884" /><path d="M337.93,489.62c0,0-7.62,4.89-9.74,12.08s-4.09,20.1-4.09,20.1s3.44,30.88,5.23,32.35s8.6,32.35,8.6,32.35l6.6-4.41-8.66-38.89c0,0,5.76-49.97,2.06-53.58Z" transform="translate(-17.96-172.03)" fill="#444053" /><path d="M337.93,489.62c0,0-7.62,4.89-9.74,12.08s-4.09,20.1-4.09,20.1s3.44,30.88,5.23,32.35s8.6,32.35,8.6,32.35l6.6-4.41-8.66-38.89c0,0,5.76-49.97,2.06-53.58Z" transform="translate(-17.96-172.03)" opacity="0.1" /><polygon points="353.13,386.48 315.04,386.48 321.21,326.39 353.13,326.39 353.13,386.48" fill="#a36468" /><path d="M282.84,679.24h.46l-.86.33.4-.33Z" transform="translate(-17.96-172.03)" fill="#67647e" /><path d="M354.5,651.87l-7.45,2.86-1,.37-26.82,10.31L309,669.34l-13.92,5.35h-5.68c-17.62-.05-35.17-.44-52.61-1.35c3.38-7.41,9.29-19.27,14.11-23.1c3.76-3,30.66-6.24,55.49-8.68c3.1-.3,6.16-.59,9.14-.86l.71-.07c9.86-.9,18.78-1.63,25-2.13l1-.08l7.82-.6.82-.82l1,4.28.83,3.42l1.79,7.17Z" transform="translate(-17.96-172.03)" fill="#67647e" /><path d="M282.84,679.24h.46l-.86.33.4-.33Z" transform="translate(-17.96-172.03)" opacity="0.1" /><path d="M354.5,651.87l-7.45,2.86-1,.37-26.82,10.31L309,669.34l-13.92,5.35h-5.68c-17.62-.05-35.17-.44-52.61-1.35c3.38-7.41,9.29-19.27,14.11-23.1c3.76-3,30.66-6.24,55.49-8.68c3.1-.3,6.16-.59,9.14-.86l.71-.07c9.86-.9,18.78-1.63,25-2.13l1-.08l7.82-.6.82-.82l1,4.28.83,3.42l1.79,7.17Z" transform="translate(-17.96-172.03)" opacity="0.1" /><path d="M282.84,679.24h.46l-.86.33.4-.33Z" transform="translate(-17.96-172.03)" fill="#67647e" /><path d="M315.15,679.24c0,.11-.08.22-.11.33v0c0-.11.07-.22.12-.33h-.01Z" transform="translate(-17.96-172.03)" fill="#67647e" /><polygon points="336.05,507.53 335.31,507.53 335.2,507.2 335.94,507.2 336.05,507.53" fill="#67647e" /><path d="M360.87,641.42L360.25,662v1.11.11l-.31,10.19-7.31.24h-1.06q-15.6.5-31.17.77h-2.75-.09-3.34l-4.64.06q-7.23.07-14.43.08h-5.75c5.2-3.22,11.93-6.77,19.17-10.32c3.25-1.6,6.62-3.19,10-4.76c9-4.18,18.11-8.13,25.54-11.28l.95-.4c2.88-1.22,5.49-2.31,7.72-3.23c4.82-2,7.88-3.2,8.09-3.28v.13Z" transform="translate(-17.96-172.03)" fill="#67647e" /><path d="M294.08,556.84c1.87,3.9,3.8,7.88,6.89,10.92.49.48,1.34.92,1.78.39.138393-.221058.204779-.479614.19-.74-.095475-1.838042-.720599-3.609226-1.8-5.1-1-1.54-2.18-2.94-3.07-4.54s-1.91-4.68-3.91-5.1c-2.57-.54-.65,2.99-.08,4.17Z" transform="translate(-17.96-172.03)" opacity="0.1" /><path d="M360.65,456.4c-.14.5-.29,1-.45,1.48-3.75654,11.50939-13.399833,20.118109-25.26,22.55-1.08-2.2-2.34-3.76-3.81-4.23-4-1.26,19-26.47,19-26.47.73.16,5.13,3.05,10.52,6.67Z" transform="translate(-17.96-172.03)" opacity="0.1" /><path d="M361.85,446.79c0,18.589905-15.070095,33.66-33.66,33.66s-33.66-15.070095-33.66-33.66s15.070095-33.66,33.66-33.66c8.932887-.018635,17.505271,3.521692,23.82179,9.83821s9.856845,14.888903,9.83821,23.82179Z" transform="translate(-17.96-172.03)" fill="#d38884" /><path d="M341.1,496.79c0,0-7,8.5-5.88,14.06h8.49l6.21-7-8.82-7.06Z" transform="translate(-17.96-172.03)" fill="#67647e" /><path d="M366,460.9l-26.7,36.71c0,0,6.86,9.81,10.13,10.3s21.92-43.42,21.92-43.42L366,460.9Z" transform="translate(-17.96-172.03)" opacity="0.1" /><path d="M366.34,460.24L339.63,497c0,0,6.86,9.8,10.13,10.29s21.92-43.41,21.92-43.41l-5.34-3.64Z" transform="translate(-17.96-172.03)" fill="#a36468" /><path d="M336.2,507.26c0,0-1.31,20.58-2.62,24.67s0,41.66,0,41.66l12.26-5.06-2.13-57.68-7.51-3.59Z" transform="translate(-17.96-172.03)" fill="#67647e" /><polygon points="335.94,507.2 336.05,507.53 335.31,507.53 335.2,507.2 335.94,507.2" opacity="0.1" /><path d="M439.4,679.55v0v0Z" transform="translate(-17.96-172.03)" opacity="0.1" /><path d="M454.34,661.51c0,0-.23.38-.61,1s-.79,1.39-1.32,2.37c-.026996.037748-.05043.07792-.07.12-.74,1.37-1.62,3.05-2.51,4.88-30,1.06-60,2.47-89.92,3.48l-7.31.24h-1.06L348.4,663v-.11l-.33-1.12-2-6.66-2-6.77-2.07-7.22-.76-2.62-.2-.66-3.26-11.1-4.42-15.07l1.43-14.38v0l.1-1.09l1.29-12.88.18-3.82v0l.1-2v-.57v0l.22-4.64.66-13.8.34-7.06v0l.06-1.07v0l.68-14.17l1.93-5.79l1-2.88l2.22-6.69.48-1.65v0c.7-2.51,2.11-7.47,3.43-12.24v0l.12-.41v0l.09-.31.94-3.39l1.17-4.35c.44-1.67.73-2.86.8-3.27.11-.71,2-3.85,4.48-8v0c5-8.27,12.52-20.44,13.38-24.52.0038-.033225.0038-.066775,0-.1.051388-.248306.121591-.492344.21-.73.41-1.22,1-1.55,1.62-1.47.282477.045631.551874.151344.79.31.602757.406116,1.130567.913627,1.56,1.5c1.17,2.25,4.3,4.5,7.07,6.17l.54.31.32.19c2.3,1.31,4.16,2.15,4.16,2.15c36.6,22.06,34.32,55.07,36.44,57.68s2.29,12.1,2.29,12.1s5.39,32.19,7.84,35s.17,3.76,2.29,6.87s1.63,11.33,1.63,11.33s1.47,19.6,6.7,23.85s12.42,43.66,12.42,43.66Z" transform="translate(-17.96-172.03)" opacity="0.1" /><path d="M455.32,661.19l-.44.76v0c-.35.62-.91,1.6-1.58,2.83l-.07.14c-.76,1.41-1.66,3.12-2.55,5h-.84c-30,1.06-60,2.47-89.92,3.48l-7.31.24L349.48,663v-.11l-.33-1.12-2.07-7-2-6.8-2-6.79-.79-2.72v0l-3.42-11.68-4.52-15.39l1.25-12.51.17-1.67L337.15,583v0l.53-11.08.65-13.39.17-3.51.19-4.06.08-1.71.65-13.38l1.93-5.78.83-2.49l1.94-5.85.41-1.24c0,0,1.87-6.57,3.68-13.08.07-.24.14-.48.2-.72.16-.56.31-1.12.47-1.67v0c.16-.56.31-1.11.45-1.66.51-1.82,1-3.52,1.34-4.92.49-1.83.82-3.16.89-3.59.11-.71,2-3.94,4.57-8.14c4.73-7.82,11.63-19,13.09-23.64.078894-.239817.145646-.48346.2-.73v0c.088911-.737201.391303-1.432356.87-2c1.34-1.29,3.33,1.48,3.33,1.48c1.17,2.25,4.3,4.51,7.07,6.17c1.618287.971742,3.287332,1.856336,5,2.65c36.6,22.06,34.32,55.07,36.44,57.69s2.29,12.09,2.29,12.09s5.39,32.19,7.84,35s.17,3.76,2.29,6.86s1.63,11.44,1.63,11.44s1.47,19.61,6.7,23.86s12.44,43.59,12.44,43.59Z" transform="translate(-17.96-172.03)" fill="#444053" /><path d="M380.69,468.65c-3.59,5.22-9.44,14.4-11,21c0,0-5.72,5.89-7.85,5.56s2,4.41,2,4.41l-22.47,31.14l3.19-9.57c0,0,6.7-23.53,7-25.65s16.57-26.41,17.86-32.52c1-4.89,4.2-.49,4.2-.49c1.16,2.2,4.29,4.47,7.07,6.12Z" transform="translate(-17.96-172.03)" opacity="0.1" /><path d="M380.69,468c-3.59,5.21-9.44,14.4-11,20.95c0,0-5.72,5.88-7.85,5.56s2,4.41,2,4.41l-22.47,31.14l3.19-9.57c0,0,6.7-23.53,7-25.66s16.57-26.4,17.86-32.51c1-4.9,4.2-.49,4.2-.49c1.16,2.25,4.29,4.5,7.07,6.17Z" transform="translate(-17.96-172.03)" fill="#444053" /><path d="M410.87,532.52c.17,7.14-10.29,16.89-10.78,17.46s-32.52,27-32.52,27l-23,17.64c-2.592445,2.137388-5.692235,3.570179-9,4.16L337.14,583l1.55-32c3.59-4,7.07-8.2,7.15-9.54.16-2.77,6-5.72,6-5.72s4.09-3.43,3.43-5.39s2.17-11.35,2.17-11.35c1.47-26.64,28.92-29.25,28.92-29.25s13.24,5.23,22.55,10.78s1.8,24.86,1.96,31.99Z" transform="translate(-17.96-172.03)" opacity="0.1" /><path d="M253.19,591.24l-8,.56c-3.38-5.75,1.27-21.15,1.27-21.15h.65l4.09.49l1.99,20.1Z" transform="translate(-17.96-172.03)" opacity="0.1" /><path d="M386.36,488.13c0,0-27.45,2.62-28.92,29.25c0,0-2.78,9.32-2.13,11.28s-3.43,5.39-3.43,5.39-5.88,2.94-6,5.72-15,17.94-15,17.94-6.2,7.06-20.58,7.8-21.08,5.14-21.08,5.14-7-4.9-12.1-3.43-29.9,3.43-29.9,3.43-6.59,21.84,1.63,23.21c1,.16,81.9,2.94,81.9,2.94s5.53,2.61,13.86-3.76s23-17.65,23-17.65s32-26.47,32.52-27s11-10.33,10.78-17.46s7.36-26.42-2-32-22.55-10.8-22.55-10.8Z" transform="translate(-17.96-172.03)" fill="#444053" /><path d="M361.85,446.79c.003339,3.541915-.553541,7.06207-1.65,10.43-.455596-.538125-.870097-1.109735-1.24-1.71q-2.34-3.6-4.69-7.2c-1.217433-2.160119-2.836474-4.067668-4.77-5.62-2-1.42-4.84-2-7-.74-1.9,1.12-2.83,3.41-3,5.61-.058169,2.208122-.001425,4.417774.17,6.62.080171.843315-.135483,1.688258-.61,2.39-.709852.635867-1.627035.991365-2.58,1l-3,.41c-.547416.192502-1.1494.155555-1.669167-.102445s-.913175-.715143-1.090833-1.267555c-2.49-4.51-4.21-10.11-8.88-12.28-2.88-1.34-6.68-1.25-8.53-3.83-1.26-1.76-1.09-4.15-.72-6.29.407059-2.41322.991987-4.79304,1.75-7.12.53-1.64,1.71-4.91-.91-5.24-1.78-.23-4.24,1.66-5.14,3s-1.12,3.13-1.76,4.66c-1.226423,2.632881-3.433482,4.682037-6.15,5.71-1.359824.558715-2.784226.945051-4.24,1.15c5.08122-15.780527,20.896239-25.511483,37.273075-22.934063s28.43842,16.695652,28.426925,33.274063l.01.08Z" transform="translate(-17.96-172.03)" opacity="0.1" /><path d="M308.3,424c-.91,1.39-1.12,3.12-1.76,4.65-1.22494,2.630324-3.427812,4.678923-6.14,5.71-2.69521,1.009183-5.552102,1.517526-8.43,1.5-4.66.14-9.86-.57-12.86-4.14c2.209162-1.710297,3.648088-4.228418,4-7c.26-2.14-.09-4.53,1.18-6.28.647184-.765848,1.417796-1.418165,2.28-1.93c5.22-3.6,9.34-8.54,14.06-12.78s10.41-7.93,16.75-8.13c8.49-.26,16,5.72,24.4,6.85c2.58.35,5.24.23,7.76.88c2.835824.881146,5.50309,2.233372,7.89,4c2.159717,1.251444,4.068653,2.892518,5.63,4.84c1.077907,1.700372,1.852723,3.574819,2.29,5.54c1.105278,4.149124,1.775558,8.402052,2,12.69.23,4.48,0,9,.48,13.46s1.9,9,4.95,12.3c-2.224783.703066-4.501964,1.228055-6.81,1.57-1.443361.342436-2.957776.223521-4.33-.34-1.11116-.706307-2.020639-1.688132-2.64-2.85l-4.69-7.2c-1.217433-2.160119-2.836474-4.067668-4.77-5.62-2-1.42-4.84-2-7-.74-1.9,1.12-2.82,3.41-3,5.61-.058169,2.208122-.001425,4.417774.17,6.62.080171.843315-.135483,1.688258-.61,2.39-.712918.637339-1.633756.992875-2.59,1l-3,.41c-.547416.192502-1.1494.155555-1.669167-.102445s-.913175-.715143-1.090833-1.267555c-2.49-4.52-4.21-10.11-8.88-12.28-2.88-1.34-6.68-1.25-8.53-3.83-1.26-1.76-1.09-4.15-.72-6.29.407059-2.41322.991987-4.79304,1.75-7.12.53-1.64,1.71-4.91-.91-5.25-1.8-.19-4.26,1.7-5.16,3.13Z" transform="translate(-17.96-172.03)" fill="#444053" /><path d="M384.44,503.07c2.53-.35,5.19-.58,7.56.39-6.17-2.53-16.21-1.56-21.83,1.92.51,1.17,12.31-2.04,14.27-2.31Z" transform="translate(-17.96-172.03)" opacity="0.1" /><path d="M387.39,511.27c6.15.41,12.5,1.27,18.33-.73-4.88-1.68-10.25-.62-15.39-1.13-4.1-.41-8.27-1.83-12.27-.79-1.67.43-7.82,3.26-7.4,5.33c5.251412-2.323924,11.015444-3.247271,16.73-2.68Z" transform="translate(-17.96-172.03)" opacity="0.1" /><path d="M371.1,524.71c1.287295-.13571,2.588741.000567,3.82.4c4.613107,1.085757,9.341175,1.606248,14.08,1.55c3.62,0,7.52-.55,10.16-3l-28.06,1.05Z" transform="translate(-17.96-172.03)" opacity="0.1" /><path d="M351.29,556c4.300708,1.974659,9.029457,2.834431,13.75,2.5c4.700978-.346191,9.34562-1.238875,13.84-2.66c2-.59,4.18-1.33,5.35-3.07L351.29,556Z" transform="translate(-17.96-172.03)" opacity="0.1" /><path d="M395.56,560.4c9.356827,5.350959,19.77657,8.577255,30.52,9.45q-8.13-3.26-16.38-6.17c-5.625768-1.971179-11.392099-3.515553-17.25-4.62c1.113878.240378,2.170234.695528,3.11,1.34Z" transform="translate(-17.96-172.03)" opacity="0.1" /><path d="M410.67,554.67c1.879393.313199,3.787705.417167,5.69.31c1,0,2.19-.14,2.78-1-4.29.18-8.52-.92-12.71-1.87-1.19-.28-3.33-.94-4.33-.23c1.9,1.36,6.17,2.31,8.57,2.79Z" transform="translate(-17.96-172.03)" opacity="0.1" /><path d="M436.46,644c2.25,3.86,4.53,7.76,7.64,11c1.797253,1.766918,3.711594,3.410645,5.73,4.92-3.71-9.46-7.48-19-13.42-27.27-1.5-2.08-3.74-5.06-6.47-5.44-.78,2.31,1.19,6.4,2.14,8.57c1.304022,2.820305,2.766352,5.564678,4.38,8.22Z" transform="translate(-17.96-172.03)" opacity="0.1" /><path d="M327.13,573.26c-.17,1.6-.3,3.37.63,4.68.460026.646056,1.132588,1.109771,1.9,1.31-.48-.12-1-4.82-1.12-5.46-.22-1.31,0-3.76-.93-4.73-.24,1.38-.33,2.8-.48,4.2Z" transform="translate(-17.96-172.03)" opacity="0.1" /><path d="M332.33,571.42c.667582,2.846927,2.475335,5.294626,5,6.77-1.75-2.16-2.32-5-3.84-7.37-.49-.76-1.06-1.85-2-2c.23673.880055.517076,1.747793.84,2.6Z" transform="translate(-17.96-172.03)" opacity="0.1" /><path d="M327.93,542.62c-2.982997,1.774055-6.569658,2.226916-9.9,1.25-.75-.22-2.5-1-2.08-2.1s2.45-.34,3.28-.24l4.35.55c.8.1,3.7.92,4.35.54Z" transform="translate(-17.96-172.03)" opacity="0.1" /><path d="M313.21,549.74c2.05-.26,3.89,1.16,5.81,1.93c2.12452.708217,4.36414,1.006833,6.6.88c1.12,0,2.39-.09,3.08-1-5.21-1.19-10.08-2.5-15.49-1.81Z" transform="translate(-17.96-172.03)" opacity="0.1" /><polygon points="319.97,317.58 320.3,317.58 322.75,326.39 319.97,329.35 319.97,317.58" fill="#a36468" /><g opacity="0.1"><path d="M283.75,419.76c-.303624,1.429973-.45447,2.888156-.45,4.35.124542-.459337.214791-.927291.27-1.4.12-.96.11-1.97.18-2.95Z" transform="translate(-17.96-172.03)" /><path d="M313.58,420.9c.490347.028785.946356.261173,1.257811.640995s.450014.872519.382189,1.359005c.47-1.66.73-3.7-1.31-4-1.78-.22-4.24,1.67-5.14,3.05s-1.12,3.13-1.76,4.66c-1.222316,2.632231-3.4261,4.681678-6.14,5.71-2.69521,1.009183-5.552102,1.517526-8.43,1.5-4.24.13-8.93-.46-12-3.26-.367558.390825-.765467.751952-1.19,1.08c3,3.57,8.2,4.28,12.87,4.14c2.87456.016532,5.727994-.491799,8.42-1.5c2.714811-1.030714,4.92096-3.079024,6.15-5.71.64-1.53.84-3.26,1.75-4.65s3.36-3.24,5.14-3.02Z" transform="translate(-17.96-172.03)" /><path d="M366.4,455.76c-1.443361.342436-2.957776.223521-4.33-.34-1.10855-.709432-2.017324-1.690495-2.64-2.85q-2.34-3.6-4.69-7.2c-1.21121-2.16151-2.827295-4.069578-4.76-5.62-2-1.43-4.85-2-7-.74-1.91,1.12-2.83,3.41-3.05,5.61c0,.09,0,.18,0,.27.362119-1.613502,1.342207-3.020807,2.73-3.92c2.13-1.26,5-.68,7,.74c1.930793,1.555138,3.549354,3.462122,4.77,5.62q2.34,3.6,4.69,7.2c.61634,1.164015,1.526469,2.146541,2.64,2.85c1.368755.563387,2.879962.682324,4.32.34c2.311147-.342831,4.591582-.867799,6.82-1.57-.439627-.475787-.847189-.980229-1.22-1.51-1.734765.483713-3.49825.857786-5.28,1.12Z" transform="translate(-17.96-172.03)" /><path d="M339.51,453.63c-.713651.629646-1.628421.984207-2.58,1l-3,.41c-.547416.192502-1.1494.155555-1.669167-.102445s-.913175-.715143-1.090833-1.267555c-2.49-4.52-4.21-10.11-8.88-12.28-2.88-1.34-6.67-1.25-8.52-3.83-.939007-1.574833-1.256387-3.44345-.89-5.24-.05.31-.12.61-.17.91-.36,2.14-.54,4.53.73,6.29c1.85,2.58,5.65,2.49,8.52,3.83c4.68,2.17,6.4,7.76,8.89,12.28.226998.567875.63005,1.048033,1.15,1.37.519574.173361,1.07734.197612,1.61.07l3-.41c.952965-.008635,1.870148-.364133,2.58-1c.479228-.699617.695325-1.546292.61-2.39v0c-.087263.12728-.184218.247637-.29.36Z" transform="translate(-17.96-172.03)" /></g><path d="M753.4,689.43l-6.41-.89v-94.63l1.31.4l4,1.23v3.15v2.37v3.59l.05,4.11.09,8.46v.85v1.13v2.4v1.45v3.51v2.2l.48,42.61v1.14l.17,15v.23l.31,1.69Z" transform="translate(-17.96-172.03)" fill="#eaecf0" /><path d="M757,689.93l-3.57-.5v-1.71-.23l-.17-15v-1.14l-.48-42.61v-2.2-3.51-1.45-2.4-1.13-.85l-.09-8.46-.05-4.11v-3.59-2.37-3.15h3.85v3.48v2.38v2.74v3.63l.08,9.14v2v2.09v1.46v1.79v2.33v0l.37,44.72v1.15l.12,14.87v.24l-.06,2.39Z" transform="translate(-17.96-172.03)" fill="#d3dae1" /><path d="M757,695.27v0Z" transform="translate(-17.96-172.03)" fill="#d3dae1" /><path d="M1146,582.18v81.68q-2.85,2-5.84,3.93l-.08-68v-7.22l5.92-10.39Z" transform="translate(-17.96-172.03)" fill="#eaecf0" /><path d="M1150.16,581v79.7c-1.36,1.09-2.75,2.14-4.16,3.17v-81.69l4.16-1.18Z" transform="translate(-17.96-172.03)" fill="#d3dae1" /><path d="M1057.3,696.75c-2.46.5-4.93,1-7.4,1.43l-.09-73.91v-3.2l7.13-3v6.78l.36,71.9Z" transform="translate(-17.96-172.03)" fill="#eaecf0" /><path d="M1062,615.73v80c-1.56.34-3.12.66-4.68,1l-.33-71.87v-6.78l.47-.22v0l4.54-2.13Z" transform="translate(-17.96-172.03)" fill="#d3dae1" /><path d="M638.15,674.61l-6.65-.67-.85-83.34v-2.38-1.59h6.53v2.15v2.38l.97,83.45Z" transform="translate(-17.96-172.03)" fill="#eaecf0" /><path d="M643.1,675.14l-5-.53-1-83.45v-2.38-2.15h5.05v2.59v2.38l.95,83.54Z" transform="translate(-17.96-172.03)" fill="#d3dae1" /><polygon points="1039.45,445.84 1044.02,443.69 1044.02,453.78 1039.57,455.27 1039.45,445.84" opacity="0.1" /><polygon points="1132.19,408.95 1132.19,424.39 1128.04,425.78 1122.11,427.75 1122.1,420.53 1128.04,410.14 1132.19,408.95" opacity="0.1" /><polygon points="1132.19,379.27 1132.19,422.02 1039.57,452.89 1038.97,407.17 1132.19,379.27" fill="#d48a9b" /><polygon points="611.46,376.3 733.18,353.14 1132.19,379.27 1038.97,407.17 611.46,376.3" fill="#efc6cd" /><polygon points="624.23,414.6 624.27,419.56 619.23,419.12 612.68,418.56 612.65,414.6 624.23,414.6" opacity="0.1" /><polygon points="738.28,429.36 734.43,429.02 729.03,428.56 729.03,421.88 734.37,423.5 738.23,423.5 738.28,429.36" opacity="0.1" /><polygon points="611.46,376.3 611.46,416.08 1039.57,452.89 1038.97,407.17 611.46,376.3" fill="#d48a9b" /><polygon points="950.9,423.6 894.98,423.6 894.98,403.31 950.9,407.25 950.9,423.6" fill="#d48a9b" /><polygon points="950.9,423.6 894.98,423.6 894.98,403.31 950.9,407.25 950.9,423.6" opacity="0.1" /><polygon points="819.87,398.86 819.87,430.92 1034.52,447.25 1034.52,413.11 950.8,408.36 942.48,415.78 908.34,413.41 896.17,404.5 819.87,398.86" opacity="0.1" /><polygon points="818.68,397.67 818.68,429.74 1033.33,446.06 1033.33,411.92 949.61,407.17 941.3,414.6 907.15,412.22 894.98,403.31 818.68,397.67" fill="#fff" /><polygon points="686.27,389.06 737.04,392.63 736.45,408.76 703.3,408.76 681.13,400.05 686.27,389.06" fill="#d48a9b" /><polygon points="686.27,389.06 737.04,392.63 736.45,408.76 703.3,408.76 681.13,400.05 686.27,389.06" opacity="0.1" /><polygon points="618.59,384.61 618.59,413.41 813.34,428.85 813.34,398.27 738.23,393.81 730.21,399.75 699.93,397.97 687.46,390.25 618.59,384.61" opacity="0.1" /><polygon points="617.4,383.42 617.4,412.22 812.15,427.66 812.15,397.08 737.04,392.63 729.03,398.56 698.74,396.78 686.27,389.06 617.4,383.42" fill="#fff" /><polygon points="1034.54,383.53 1061.84,385.32 1016.61,398.86 993.57,397.2 1034.54,383.53" opacity="0.1" /><polygon points="1034.54,382.35 1061.84,384.13 1016.61,397.67 993.57,396.01 1034.54,382.35" fill="#fff" /><path d="M1049.24,557.45c1.08-.47,2.23.4,3.38.62.65.13,1.33,0,2,.13c1.34.18,2.66,1.07,3.94.62l-9.32-1.37Z" transform="translate(-17.96-172.03)" fill="#d3dae1" /><path d="M1047.83,558.26c1.07-.46,2.22.41,3.37.63.66.12,1.34,0,2,.12c1.33.18,2.66,1.08,3.94.63l-9.31-1.38Z" transform="translate(-17.96-172.03)" fill="#d3dae1" /><path d="M1044.59,559.9c1.07-.46,2.22.4,3.37.62.66.13,1.33,0,2,.13c1.34.18,2.67,1.08,3.94.62l-9.31-1.37Z" transform="translate(-17.96-172.03)" fill="#d3dae1" /><polygon points="850.35,368.55 911.22,372.54 898.25,391.17 831.33,384.02 850.35,368.55" opacity="0.1" /><polygon points="849.16,367.36 910.03,371.34 897.06,389.98 830.13,382.83 849.16,367.36" fill="#3a3768" /><polygon points="851.84,368.73 904.93,371.98 893.62,387.16 835.25,381.33 851.84,368.73" fill="#d5e1f4" /><path d="M757,695.27v0Z" transform="translate(-17.96-172.03)" fill="#3a3768" /><path d="M757,695.27v0Z" transform="translate(-17.96-172.03)" opacity="0.1" /><path d="M756.54,695.27v0Z" transform="translate(-17.96-172.03)" fill="#3a3768" /><path d="M834.2,693c0,.28,0,.57-.05.85s0,.5-.08.75c-.212852,1.762322-.702192,3.480072-1.45,5.09v0c-25.15-2.83-50.36-6.23-75.6-9.72l-3.57-.5-6.41-.89-5.4-.75v0c-5.910666-.148465-11.804332-.699743-17.64-1.65-3.676784-.543961-7.316899-1.312059-10.9-2.3-16-2.19-32.09-4.3-48.13-6.22l-2.09-.25c.38-1.7.7-2.73.7-2.73s3.44-13.52,6.3-28.63c.63-3.28,1.23-6.62,1.75-9.93.42-2.65.8-5.27,1.12-7.79.18-1.39.33-2.75.46-4.08.07-.66.13-1.32.18-2s.11-1.42.16-2.11.07-1.3.1-1.93v-.94c0-1.35,0-2.76-.05-4.21-.50613-7.222239-1.64381-14.386276-3.4-21.41-.28-1.2-.57-2.4-.87-3.57-.09-.38-.19-.75-.29-1.12-3.23-12.51-7-22.73-7-22.73-.004194-.056589-.004194-.113411,0-.17.004222-.039889.004222-.080111,0-.12.004417-.083275.004417-.166725,0-.25c0-.32,0-.81,0-1.4c0-.12,0-.25,0-.38.07312-1.049129.254074-2.08794.54-3.1.108861-.359466.235687-.713244.38-1.06.724795-2.042196,2.407265-3.597546,4.5-4.16v0c2.83-.73,7.11,0,13.57,3.83c1.052068.607576,2.055114,1.296334,3,2.06.48.38,1,.78,1.4,1.21c7.4,6.89,11.34,18.26,13.44,28.64.08.37.15.74.22,1.11.25,1.28.46,2.53.65,3.76.34,2.16.61,4.24.81,6.17c0,.52.11,1,.16,1.53s.1,1,.13,1.48c.13,1.56.22,3,.28,4.22.17,3.24.14,5.23.14,5.23v.1c0,0,0,.15-.05.43-.005678.026364-.005678.053636,0,.08c0,.12,0,.27,0,.44s0,.29,0,.46q-.06.63-.15,1.47c-.09.86-.19,1.87-.31,3-.08.84-.18,1.75-.28,2.71-.22,2-.46,4.32-.72,6.76-.06.46-.11.92-.16,1.38-.23,2.09-.47,4.27-.72,6.47v0c-.27,2.5-.57,5-.86,7.47-.07.54-.14,1.08-.2,1.61-.74,6-1.48,11.45-2.08,14.84-.094183.502665-.160948,1.010081-.2,1.52-.009658.173199-.009658.346801,0,.52-.030108.452833-.030108.907167,0,1.36.49,8.54,9.72,10,9.72,10l41.91-.83l6.22-.12l3.62-.07l32.67-.65v0l3-.06l16.25-.32c1.102987-.025899,2.204042.10542,3.27.39c5.01737,1.347894,9.804021,3.441211,14.2,6.21c1.373188.881523,2.609677,1.95966,3.67,3.2.051863.048553.098761.102151.14.16c2.216524,2.656801,3.585474,5.9172,3.93,9.36c0,.23,0,.46,0,.69.08.48.08,1.02.07,1.59Z" transform="translate(-17.96-172.03)" fill="#3a3768" /><path d="M756.54,695.27v0Z" transform="translate(-17.96-172.03)" opacity="0.1" /><path d="M834.2,693c0,.28,0,.57-.05.85s0,.5-.08.75c-.238363,1.76305-.744176,3.479444-1.5,5.09-25.15-2.83-50.36-6.23-75.6-9.72l-3.57-.5-6.41-.89-5.4-.75v0c-5.910666-.148465-11.804332-.699743-17.64-1.65-3.676784-.543961-7.316899-1.312059-10.9-2.3-16-2.19-32.09-4.3-48.13-6.22l-2.09-.25v0c.38-1.76.72-2.83.72-2.83s2.81-11,5.48-24.33v0c.19-.92.37-1.84.55-2.77l.27-1.41c.62-3.27,1.22-6.63,1.75-9.93.42-2.65.8-5.27,1.12-7.79.18-1.39.33-2.75.46-4.08.07-.66.13-1.32.18-2s.11-1.42.16-2.11.07-1.3.1-1.93v-.94c0-1.35,0-2.76-.05-4.21-.491151-7.221926-1.618861-14.3864-3.37-21.41q-.42-1.82-.87-3.57c-.1-.38-.19-.75-.29-1.12-3.24-12.55-7-22.83-7-22.83.00256-.023263.00256-.046737,0-.07.004222-.039889.004222-.080111,0-.12.004417-.083275.004417-.166725,0-.25c0-.32,0-.81,0-1.4c0-.12,0-.25,0-.38.063529-1.048056.234423-2.086829.51-3.1.11-.35.23-.71.37-1.06.731681-2.157514,2.522832-3.786177,4.74-4.31c2.83-.66,7.06.16,13.38,3.86c1.09562.643628,2.138846,1.372548,3.12,2.18v0c.47.39.92.78,1.36,1.2c7.34,6.93,11.25,18.28,13.33,28.63.08.37.15.75.22,1.12.25,1.27.46,2.53.65,3.75.34,2.16.6,4.23.8,6.15.05.53.11,1.05.15,1.55s.1,1,.13,1.48c.13,1.56.22,3,.28,4.22.17,3.24.14,5.23.14,5.23v.34c0,.06,0,.12,0,.19-.005678.026364-.005678.053636,0,.08c0,.12,0,.27,0,.44s0,.29,0,.46q-.06.63-.15,1.47c-.09.86-.19,1.87-.31,3-.1.83-.19,1.74-.29,2.71-.22,2-.46,4.32-.72,6.76-.06.46-.11.92-.16,1.38-.23,2.09-.48,4.29-.72,6.49v0c-.29,2.5-.58,5-.88,7.46-.07.54-.13,1.08-.2,1.61-.73,6-1.46,11.37-2.06,14.74-.098687.538924-.165469,1.083204-.2,1.63-.009658.173199-.009658.346801,0,.52-.030108.452833-.030108.907167,0,1.36.57,8.44,9.72,9.85,9.72,9.85l41.91-.82l6.21-.13l3.63-.07l32.73-.64l3.06-.06l16.19-.32c1.103434-.035741,2.205922.095748,3.27.39c5.055066,1.310147,9.880607,3.384017,14.31,6.15c1.396944.893332,2.651066,1.992375,3.72,3.26.051863.048553.098761.102151.14.16c2.215016,2.668352,3.567982,5.946156,3.88,9.4c0,.23,0,.46,0,.69-.09.56-.09,1.1-.1,1.67Z" transform="translate(-17.96-172.03)" opacity="0.1" /><path d="M756.54,695.27v0Z" transform="translate(-17.96-172.03)" fill="#3a3768" /><path d="M834.27,699.84l-1.65-.19v0c-25.15-2.83-50.36-6.23-75.6-9.72l-3.57-.5-6.41-.89-5.4-.75v0c-5.910666-.148465-11.804332-.699743-17.64-1.65-3.676784-.543961-7.316899-1.312059-10.9-2.3-16-2.19-32.09-4.3-48.13-6.22.260544-1.40316.594334-2.791725,1-4.16s9.5-37.41,10.09-57.3c.21-7.11-1.2-15.91-3.11-24.3v0c-.28-1.21-.56-2.41-.86-3.59l-.27-1.12C668.43,574,664.4,563,664.4,563c-.094479-1.360943-.017205-2.728366.23-4.07.06198-.360471.142082-.71759.24-1.07.383463-1.675823,1.286406-3.187727,2.58-4.32v0c.05906-.052205.122643-.099056.19-.14c2.63-2,7.35-2.14,15.75,2.78c1.701674,1.004212,3.276326,2.209543,4.69,3.59.4.38.8.78,1.18,1.19c6.75,7.31,10.33,18.51,12.21,28.53l.21,1.11c.22,1.25.41,2.48.59,3.67c0,0,0,.07,0,.1v0c.23,1.58.42,3.09.58,4.53c0,0,0,0,0,0c.468153,4.240731.708499,8.503522.72,12.77s-.39,3.95-1,9.64c-.23,2.23-.5,4.73-.79,7.37c0,.13,0,.26,0,.4l-.15,1.4c-.51,4.61-1.07,9.53-1.64,14.09-.06.56-.13,1.11-.2,1.65-.64,5.13-1.28,9.69-1.81,12.66-2.08,11.58,9.5,13.36,9.5,13.36l39.54-.78l6.2-.12l3.63-.08h1.52.49l31.36-.62h3l18-.36c1.10373-.027993,2.205562.106787,3.27.4c5.056699,1.309758,9.885106,3.380039,14.32,6.14c1.243008.802615,2.375915,1.764073,3.37,2.86.061951.061988.118802.128872.17.2c4.81795,5.568713,5.588093,13.574994,1.92,19.96Z" transform="translate(-17.96-172.03)" fill="#3a3768" /><polygon points="957.67,347.05 969.9,373.25 967.85,373.25 953.51,347.36 957.67,347.05" fill="#4c4c56" /><polygon points="957.67,347.05 969.9,373.25 967.85,373.25 953.51,347.36 957.67,347.05" opacity="0.1" /><polygon points="957.67,373.25 969.9,373.25 969.9,375.99 957.67,376.3 957.67,373.25" fill="#4c4c56" /><polygon points="957.67,373.25 969.9,373.25 969.9,375.99 957.67,376.3 957.67,373.25" opacity="0.1" /><path d="M880.5,422.67v91.49c0,3.750014,3.039987,6.79,6.79,6.79h152.5c1.812965.000336,3.549852-.72864,4.819527-2.022768s1.965389-3.044604,1.930473-4.857232l-1.73-91.57c-.07083-3.677056-3.072262-6.620682-6.75-6.62h-150.77c-1.80082,0-3.527883.715373-4.801255,1.988745s-1.988745,3.000435-1.988745,4.801255Z" transform="translate(-17.96-172.03)" fill="#4c4c56" /><path d="M880.5,422.67v91.49c0,3.750014,3.039987,6.79,6.79,6.79h152.5c1.812965.000336,3.549852-.72864,4.819527-2.022768s1.965389-3.044604,1.930473-4.857232l-1.73-91.57c-.07083-3.677056-3.072262-6.620682-6.75-6.62h-150.77c-1.80082,0-3.527883.715373-4.801255,1.988745s-1.988745,3.000435-1.988745,4.801255Z" transform="translate(-17.96-172.03)" opacity="0.1" /><path d="M875,422.67v91.49c0,3.750014,3.039987,6.79,6.79,6.79h152.5c1.812082.000391,3.54799-.7289,4.816088-2.023338s1.961552-3.044971,1.923912-4.856662l-1.73-91.57c-.070753-3.67317-3.066152-6.615239-6.74-6.62h-150.73c-1.807741-.01065-3.545097.700019-4.827134,1.974547s-2.002897,3.007681-2.002866,4.815453Z" transform="translate(-17.96-172.03)" fill="#4c4c56" /><path d="M881,428.39v80.55c0,3.750013,3.039986,6.79,6.79,6.79h141.21c3.727922,0,6.75-3.022078,6.75-6.75v-80.64c-.005517-3.724016-3.02598-6.740004-6.75-6.74h-141.21c-3.750013,0-6.79,3.039987-6.79,6.79Z" transform="translate(-17.96-172.03)" fill="#55198b" /><polygon points="924.14,347.42 937.55,373.25 967.85,373.25 952.7,343.7 924.14,347.42" fill="#4c4c56" /><polygon points="913.46,373.25 911.22,375.99 957.67,375.99 957.67,373.25 913.46,373.25" fill="#4c4c56" /><path d="M735.56,450.44c-3.33-9.36-3.31-19.75-7.35-28.82-.645325-1.297187-1.209738-2.633074-1.69-4-.251522-.849809-.405842-1.725406-.46-2.61l-.25.06-.25.07-.25.1v0l-.23.14c.061359.297122.138129.590852.23.88.48318,1.3688,1.054372,2.704921,1.71,4c4.12,9.12,4.09,19.55,7.48,29c.11899.41473.334935.795204.63,1.11.147353.136671.320833.24212.51.31-.03-.11-.06-.17-.08-.24Zm0,0c-3.33-9.36-3.31-19.75-7.35-28.82-.645325-1.297187-1.209738-2.633074-1.69-4-.251522-.849809-.405842-1.725406-.46-2.61l-.25.06-.25.07-.25.1v0l-.23.14c.061359.297122.138129.590852.23.88.48318,1.3688,1.054372,2.704921,1.71,4c4.12,9.12,4.09,19.55,7.48,29c.11899.41473.334935.795204.63,1.11.147353.136671.320833.24212.51.31-.03-.11-.06-.17-.08-.24Zm0,0c-3.33-9.36-3.31-19.75-7.35-28.82-.645325-1.297187-1.209738-2.633074-1.69-4-.251522-.849809-.405842-1.725406-.46-2.61l-.25.06-.25.07-.25.1v0l-.23.14c.061359.297122.138129.590852.23.88.48318,1.3688,1.054372,2.704921,1.71,4c4.12,9.12,4.09,19.55,7.48,29c.11899.41473.334935.795204.63,1.11.147353.136671.320833.24212.51.31-.03-.11-.06-.17-.08-.24Zm0,0c-3.33-9.36-3.31-19.75-7.35-28.82-.645325-1.297187-1.209738-2.633074-1.69-4-.251522-.849809-.405842-1.725406-.46-2.61l-.25.06-.25.07-.25.1v0l-.23.14c.061359.297122.138129.590852.23.88.48318,1.3688,1.054372,2.704921,1.71,4c4.12,9.12,4.09,19.55,7.48,29c.11899.41473.334935.795204.63,1.11.147353.136671.320833.24212.51.31-.03-.11-.06-.17-.08-.24Zm0,0c-3.33-9.36-3.31-19.75-7.35-28.82-.645325-1.297187-1.209738-2.633074-1.69-4-.251522-.849809-.405842-1.725406-.46-2.61l-.25.06-.25.07-.25.1v0l-.23.14c.061359.297122.138129.590852.23.88.48318,1.3688,1.054372,2.704921,1.71,4c4.12,9.12,4.09,19.55,7.48,29c.11899.41473.334935.795204.63,1.11.147353.136671.320833.24212.51.31-.03-.11-.06-.17-.08-.24Zm0,0c-3.33-9.36-3.31-19.75-7.35-28.82-.645325-1.297187-1.209738-2.633074-1.69-4-.251522-.849809-.405842-1.725406-.46-2.61l-.25.06-.25.07-.25.1v0l-.23.14c.061359.297122.138129.590852.23.88.48318,1.3688,1.054372,2.704921,1.71,4c4.12,9.12,4.09,19.55,7.48,29c.11899.41473.334935.795204.63,1.11.147353.136671.320833.24212.51.31-.03-.11-.06-.17-.08-.24Zm0,0c-3.33-9.36-3.31-19.75-7.35-28.82-.645325-1.297187-1.209738-2.633074-1.69-4-.251522-.849809-.405842-1.725406-.46-2.61l-.25.06-.25.07-.25.1v0l-.23.14c.061359.297122.138129.590852.23.88.48318,1.3688,1.054372,2.704921,1.71,4c4.12,9.12,4.09,19.55,7.48,29c.11899.41473.334935.795204.63,1.11.147353.136671.320833.24212.51.31-.03-.11-.06-.17-.08-.24Zm173.75,93.2v0l-.77-.14l1-.22v0c.098716-.013831.195844-.037276.29-.07v0c1.11-.24,2.21-.51,3.29-.8v0l1.13-.32v0l.16-.05c9.32-2.75-1.55-5.28-15.37-7.16h-.04c-14.92-2-33.22-3.31-33.22-3.31l-5.73.76h-.05c-7,.92-18.05,2.44-19.81,3-2.14.71-20.3,1.58-26.63,1.86-.224136-.407163-.547466-.751131-.94-1l-18.67-.86v2.57v0l-.14-.06c-.156364-3.470427-1.017155-6.872762-2.53-10l-.14-.28c-4.82-9.14-5.79-11.43-5.79-11.43v0c0-.16-.08-.32-.13-.49-1.62-5.62-7.59-15.39-17.71-29.41l-.35-.49-1.27-6.22-.22-1.09h-6.37c.949184-5.402677,2.429705-10.698386,4.42-15.81.13-.32.26-.64.4-.95l.08-.18c.14-.33.3-.66.45-1c.37,0,.74,0,1.11,0v0c15.548248-.571012,28.161422-12.7787,29.24-28.3.005678-.026364.005678-.053636,0-.08q.06-.93.06-1.86c.016752-5.265769-1.363513-10.441761-4-15-.08-.14-.16-.28-.25-.42l-.16-.27-.36-.56c2.28-.54,5,.5,7-.78.742618-.522848,1.332796-1.233822,1.71-2.06.479942-.945009.816948-1.956027,1-3s0,0,0,0s0,0,0,0c.004825-.056564.004825-.113436,0-.17.004679-.019726.004679-.040274,0-.06.109963-.68098.160154-1.370273.15-2.06.034731-1.418664-.202893-2.830828-.7-4.16-1.16028-2.951698-3.491913-5.290573-6.44-6.46-1.53525-.509766-3.097662-.933754-4.68-1.27-6.4-1.71-11.81-5.93-18-8.28-4.299903-1.636009-8.89701-2.344829-13.49-2.08-2.779611.082542-5.508559.764779-8,2-1.900341,1.115227-3.688629,2.411234-5.34,3.87-4.45,3.51-9.5,6.51-13.37,10.7-.697652.757408-1.345667,1.559076-1.94,2.4-.34.49-.65,1-1,1.5-.575878-.728291-1.487681-1.106633-2.41-1v0c-.163174-.010218-.326826-.010218-.49,0-.415693.016697-.829882.06012-1.24.13-1,.17-8.45,2.14-8.45,3.16-3.090228,1.33489-5.972935,3.106273-8.56,5.26-6,5.49-7.34,14.19-8.1,22.21-.968978,9.299782-1.303086,18.654787-1,28c.14,3.4.41,6.8.25,10.2-.275081,4.000557-.866935,7.973006-1.77,11.88q-1.29,6.1-2.79,12.16c-.48,2-1.25,4.23-3.21,4.86l.73.1c-.229019.144432-.473982.26188-.73.35.841069.132776,1.689184.216252,2.54.25h.59c.481291-.006634.960568-.063611,1.43-.17.650753-.163786,1.264805-.448761,1.81-.84.08-.2.15-.4.22-.61.59743-.467737,1.020106-1.122885,1.2-1.86.078376,1.130582.011159,2.26655-.2,3.38c0,.16-.06.33-.1.49-.534225,2.44506-1.72332,4.698812-3.44,6.52l1-.76c-.31156.420844-.645368.824752-1,1.21q2.16-1.62,4.32-3.31v0c.088024-.056912.171597-.120428.25-.19v0l2.46-1.94c0,.24,0,.55,0,.94s0,.62,0,1v0c0,.14,0,.29,0,.45-.2,6.9-.49,23.85,1.08,27.9.09.24.19.48.27.71c1.79,4.61,2.56,6.6,2.33,9-.16,1.67,1.09,6.45,1.78,10.25.389698,1.51065.49817,3.080102.32,4.63-.135609.922387-.074263,1.863039.18,2.76.09.44.2.91.32,1.4c0,.17.08.35.13.53.91,3.64,2.2,8.14.85,9.93-.426124.616089-.762804,1.289448-1,2-1.11,3-1.29,7.1-2.57,8.76-1.5,1.93-1,5.36-.88,5.8.002326.016586.002326.033414,0,.05s-.07.39-.21,1c-.17.84-.44,2.13-.78,3.56v.1c-.456009,2.009887-1.033741,3.990203-1.73,5.93s0,0,0,0c-.51,1.36-1,2.34-1.57,2.53-2,.73-3,10.12-3,10.12s-4.58,7.43-3.71,9.26c.193211.421972.410227.832633.65,1.23l-.44.68c-2.45,3.93-6,11.07-2.56,14.91c1.199504,1.245806,2.582082,2.301286,4.1,3.13-.18.4-.37.83-.57,1.3-3.78,8.86-9.6,29.44,12.79,38.12c2.224463.856847,4.490666,1.601123,6.79,2.23c3.583101.987941,7.223216,1.756039,10.9,2.3c5.29982.797184,10.64281,1.274713,16,1.43c2.38.08,4.73.1,7,.08s4.33-.07,6.39-.16q1.83-.07,3.57-.18c6.879596-.37075,13.733406-1.121898,20.53-2.25l32-5.73c0,0,13.44.48,18.39,3.32l.15.09c0,0,.81-.47,2.17-1.39v0c.59-.4,1.29-.88,2.06-1.45c5.07-3.73,13.53-11,19.07-21.22l.11-.19l1.09-.14h.25l.78-.11l1.62-.23h.1.19c4.05-.59,7.88-1.24,7.88-1.24s.15,4.47.33,9.65c.06,1.58.11,3.23.17,4.83.19,5.48.36,10.46.36,10.63s4.12,11,8.73,21.92l3.6.29q14.26,1.14,28.51,1.89l3.55.18l2.22.11c-1.6-9.69-2.86-18.93-2.86-18.93l-5.94-27.67c0,0-.62-5.73-5.07-31.2-3.6-20.64-24.8-18.81-32.74-17.36-.81.15-1.47.29-2,.4v-1.55c0,0-15.23,1.28-29,1.9l-3.35.14c-3.19.12-6.22.19-8.88.19-2.33667.032567-4.673396-.060902-7-.28-10.63-1.22-22.75,2.43-22.75,2.43s-15.49,2.51-17.56,1.59c-.558923-.21761-1.150566-.339319-1.75-.36-.31,0-.64,0-1,0c.717768-.275934,1.137723-1.023453,1-1.78-.62-2.56-.87-6.1.87-8.54.76-1.08,2-2.78,3.11-4.33l2.7-3.71v-.29l.07-1.09.65-9.72l1.56-9l.1-.57.14-.8.1-.58.3.1v0c4.43,1.54,9.45,2.62,13,1.38h.07c.281715-.09596.555821-.212956.82-.35h.16v.67l.06,1.17l16.69-.91h.25c0,0,.65-3.22,1.35-7.66.05-.36.11-.73.17-1.11s.15-1,.22-1.46c0-.23.07-.47.1-.71h.67.33c7.74-.28,18.54-.94,22.94-2.54v0c.546193-.181098,1.057027-.455121,1.51-.81c1.87-1.62,8.58-3.94,15.17-5.94v0l2.63-.78c1.91-.56,3.75-1.08,5.38-1.54c3.78-1,6.48-1.74,6.48-1.74s26,2.41,45.42-3.2v0l.32-.09c7.31-2.33,2.77-4.29-5.92-5.94Zm-184.49-130c0,.32.06.57.11.89c0,0,0,0,0,0s0,0,0,0s0,0,0,0s0,0,0,0c.01021.12802.030269.255062.06.38c0,.13,0,.26.08.39.061359.297122.138129.590852.23.88.48318,1.3688,1.054372,2.704921,1.71,4c4.12,9.12,4.09,19.55,7.48,29c.11899.41473.334935.795204.63,1.11.147353.136671.320833.24212.51.31l.24.08v0h.28l-.11.19c-.022855.048744-.049608.095563-.08.14l-.07.11c-1.34,2.26-2.77,4.48-4.21,6.44-1.240286.235515-2.420424.718453-3.47,1.42l-.56.37-.24.18c-.35-1.72-.83-3.42-1.27-5.12-2.381667-9.060978-3.677431-18.37302-3.86-27.74c0-.2,0-.4,0-.6c0-.43,0-.86,0-1.29c0-2.42.06-4.83.21-7.25-.018654-1.118512.27576-2.219966.85-3.18v0c.380956-.423299.911818-.681556,1.48-.72v.01Zm10.74,36.81c-3.33-9.36-3.31-19.75-7.35-28.82-.645325-1.297187-1.209738-2.633074-1.69-4-.251522-.849809-.405842-1.725406-.46-2.61l-.25.06-.25.07-.25.1v0l-.23.14c.061359.297122.138129.590852.23.88.48318,1.3688,1.054372,2.704921,1.71,4c4.12,9.12,4.09,19.55,7.48,29c.11899.41473.334935.795204.63,1.11.147353.136671.320833.24212.51.31-.03-.12-.06-.18-.08-.25v.01Zm0,0c-3.33-9.36-3.31-19.75-7.35-28.82-.645325-1.297187-1.209738-2.633074-1.69-4-.251522-.849809-.405842-1.725406-.46-2.61l-.25.06-.25.07-.25.1v0l-.23.14c.061359.297122.138129.590852.23.88.48318,1.3688,1.054372,2.704921,1.71,4c4.12,9.12,4.09,19.55,7.48,29c.11899.41473.334935.795204.63,1.11.147353.136671.320833.24212.51.31-.03-.12-.06-.18-.08-.25v.01Zm0,0c-3.33-9.36-3.31-19.75-7.35-28.82-.645325-1.297187-1.209738-2.633074-1.69-4-.251522-.849809-.405842-1.725406-.46-2.61l-.25.06-.25.07-.25.1v0l-.23.14c.061359.297122.138129.590852.23.88.48318,1.3688,1.054372,2.704921,1.71,4c4.12,9.12,4.09,19.55,7.48,29c.11899.41473.334935.795204.63,1.11.147353.136671.320833.24212.51.31-.03-.12-.06-.18-.08-.25v.01Zm0,0c-3.33-9.36-3.31-19.75-7.35-28.82-.645325-1.297187-1.209738-2.633074-1.69-4-.251522-.849809-.405842-1.725406-.46-2.61l-.25.06-.25.07-.25.1v0l-.23.14c.061359.297122.138129.590852.23.88.48318,1.3688,1.054372,2.704921,1.71,4c4.12,9.12,4.09,19.55,7.48,29c.11899.41473.334935.795204.63,1.11.147353.136671.320833.24212.51.31-.03-.12-.06-.18-.08-.25v.01Zm0,0c-3.33-9.36-3.31-19.75-7.35-28.82-.645325-1.297187-1.209738-2.633074-1.69-4-.251522-.849809-.405842-1.725406-.46-2.61l-.25.06-.25.07-.25.1v0l-.23.14c.061359.297122.138129.590852.23.88.48318,1.3688,1.054372,2.704921,1.71,4c4.12,9.12,4.09,19.55,7.48,29c.11899.41473.334935.795204.63,1.11.147353.136671.320833.24212.51.31-.03-.12-.06-.18-.08-.25v.01Zm0,0c-3.33-9.36-3.31-19.75-7.35-28.82-.645325-1.297187-1.209738-2.633074-1.69-4-.251522-.849809-.405842-1.725406-.46-2.61l-.25.06-.25.07-.25.1v0l-.23.14c.061359.297122.138129.590852.23.88.48318,1.3688,1.054372,2.704921,1.71,4c4.12,9.12,4.09,19.55,7.48,29c.11899.41473.334935.795204.63,1.11.147353.136671.320833.24212.51.31-.03-.12-.06-.18-.08-.25v.01Z" transform="translate(-17.96-172.03)" fill="url(#eOTWBKVqtbD137-fill)" /><path d="M769,455.7c-1.574576,1.773237-2.869467,3.776271-3.84,5.94-.15.33-.3.65-.44,1-4.42,10-5.92,24.15-5.92,24.15s-2.74-1.23-6.62-3.15c-7.23-3.58-18.39-9.54-22.9-14.29-2-2.15-2.72-4.05-1.06-5.38.36-.29.73-.62,1.1-1c1.278921-1.278266,2.446486-2.663286,3.49-4.14c1.44-2,2.86-4.23,4.2-6.52.79-1.34,1.54-2.69,2.24-4l.28-.52c3-5.69,5.19-10.55,5.19-10.55s1,.32,2.62.89c7.47,2.67,28.04,10.78,21.66,17.57Z" transform="translate(-17.96-172.03)" fill="#efb7b9" /><path d="M905.88,687.39c0,0,1.22,9.06,2.77,18.62l-3.55-.18q-14.24-.74-28.51-1.89c-5.4-12.51-11-27.36-11-27.59s-.17-5.12-.36-10.58c-.06-1.92-.13-3.9-.19-5.76v0c-.1-2.82-.19-5.36-.24-6.94c0-1.08-.06-1.72-.06-1.72s-5.14.9-9.76,1.53l-2.05.27c-1.06.13-2,.23-2.85.29-.732433.111691-1.477567.111691-2.21,0-1.58-.61,1.7-16,1.7-16l8.16-19.75l2.28-5.5l1-.25c.49-.12,1.15-.26,1.94-.41c7.79-1.43,28.6-3.25,32.13,17.29c4.37,25.37,5,31.07,5,31.07l5.8,27.5Z" transform="translate(-17.96-172.03)" fill="#efb7b9" /><path d="M913.77,728h-2.47h2.44.03Z" transform="translate(-17.96-172.03)" fill="#efb7b9" /><path d="M905.88,687.39c0,0,1.22,9.06,2.77,18.62l-3.55-.18q-14.24-.74-28.51-1.89c-5.4-12.51-11-27.36-11-27.59s-.17-5.12-.36-10.58c-.06-1.92-.13-3.9-.19-5.76v0c-.1-2.82-.19-5.36-.24-6.94c0-1.08-.06-1.72-.06-1.72s-5.14.9-9.76,1.53l-2.05.27c-1.06.13-2,.23-2.85.29-.732433.111691-1.477567.111691-2.21,0-1.58-.61,1.7-16,1.7-16l8.16-19.75l2.28-5.5l1-.25c.49-.12,1.15-.26,1.94-.41c7.79-1.43,28.6-3.25,32.13,17.29c4.37,25.37,5,31.07,5,31.07l5.8,27.5Z" transform="translate(-17.96-172.03)" opacity="0.05" /><path d="M913.77,728h-2.47h2.44.03Z" transform="translate(-17.96-172.03)" opacity="0.05" /><path d="M905.1,705.83q-14.24-.74-28.51-1.89l-3.6-.29-1.59-.13c-4.48-10.81-8.46-21.38-8.46-21.57s-.17-5.12-.36-10.58c-.23-6.82-.49-14.42-.49-14.42l-.67.11-.28.05h-.12-.24l-1.61.27-.88.14c-1.59.26-3.51.55-5.39.82l-.42.06-1.1.14-1,.12v0c-.77.1-1.5.18-2.16.24l-.81.07c-.732019.117022-1.477981.117022-2.21,0-1.58-.61,1.7-16,1.7-16l10.44-25.25.36-.1c.55-.14,1.71-.41,3.28-.68.59-.1,1.24-.2,1.94-.29c9.06-1.16,26.3-.83,29.49,17.7c4.37,25.37,5,31.07,5,31.07L903.24,693c0,0,.76,5.7,1.86,12.83Z" transform="translate(-17.96-172.03)" fill="#efb7b9" /><path d="M862.58,671.37c-.23-6.82-.49-14.43-.49-14.43s-10,1.75-14.66,2.09l.94-3.18c0,0,17.12-4.73,17.48-2.06.26,1.87-1.94,11.81-3.27,17.58Z" transform="translate(-17.96-172.03)" opacity="0.1" /><path d="M862.94,611.48v7.23c0,0-.85,13-7.53,32.89-.14.43-.29.85-.45,1.27-.700447,1.913571-1.528989,3.77779-2.48,5.58-1.88.26-3.7.48-5.05.58-.73241.112-1.47759.112-2.21,0-1.58-.61,1.69-16,1.69-16l10.44-25.24.37-.1l2.27-5.51c0,0,1.12-.36,2.95-.7Z" transform="translate(-17.96-172.03)" opacity="0.1" /><path d="M861,610.34v8.37c0,0-.85,13-7.53,32.9-.17.52-.36,1-.55,1.53s-.44,1.16-.69,1.72c-.55,1.33-1.17,2.62-1.82,3.86v0c-5.23,9.91-13.2,17-18.26,20.9-.74.57-1.43,1.07-2,1.49h-.05c-1,.68-1.72,1.17-2.18,1.46s-.5.31-.5.31c-4.74-2.91-18.21-3.4-18.21-3.4l-31.44,5.71c-6.872474,1.183434-13.807213,1.971397-20.77,2.36l-3.57.17c-2.06.08-4.2.13-6.39.14-1.77,0-3.57,0-5.4-.07v0c-5.910666-.148465-11.804332-.699743-17.64-1.65-3.209857-.527025-6.388058-1.231437-9.52-2.11-2.233235-.618872-4.432858-1.353192-6.59-2.2-22-8.64-16.27-29.13-12.56-38c.2-.47.39-.9.57-1.3.82-1.81,1.43-2.87,1.43-2.87l1.46-3.53v0l2.39-5.79.53-1.27.15-.37l1.77-4.29l25-3.24L747,618.79l5.59-.72l3.79-.49l7.23-.94l2.72-.35c1.677579-.26028,3.372361-.393991,5.07-.4.917413-.042799,1.834402.093052,2.7.4c2,.91,17.24-1.58,17.24-1.58s11.89-3.64,22.33-2.43c5.162869.356383,10.342964.389782,15.51.1v0l1.28-.06l1.66-.07h.36c13.52-.63,28.52-1.91,28.52-1.91Z" transform="translate(-17.96-172.03)" fill="#444053" /><path d="M771.05,635.46c0,0-12,27.31-12.5,27.79s-.48,9,0,8.5s17.12-37.38,17.12-37.38l-4.62,1.09Z" transform="translate(-17.96-172.03)" opacity="0.1" /><path d="M829.19,612.36c0,0-6.07,3.92-7.89,7.08s-18.45,34.59-22.57,39.2c-3.421133,4.124099-6.507602,8.51471-9.23,13.13-.48.83-.48,6.05,2.43,1.07s2.19-5.82,7.89-12s12-20.15,14.44-22.94s5.83-11.17,10.08-16.15l8.14-9.51-3.29.12Z" transform="translate(-17.96-172.03)" opacity="0.1" /><path d="M830.65,666.29c0,0-4.25-2.91-8.25,2.06s8.25-2.06,8.25-2.06Z" transform="translate(-17.96-172.03)" opacity="0.1" /><path d="M835.87,667.79c0,0-3.52,6.14-5.22,6.63s5.22-6.63,5.22-6.63Z" transform="translate(-17.96-172.03)" opacity="0.1" /><path d="M830.65,669.32c0,0-2.79,4.86-5.22,4.37l5.22-4.37Z" transform="translate(-17.96-172.03)" opacity="0.1" /><path d="M811,538.11c0,0,25.73-1.09,28.28-1.94s25.12-3.76,25.12-3.76s66.88,4.73,47.83,10.44-44.91,3.27-44.91,3.27-25.25,6.56-29.13,10-32.53,3.52-32.53,3.52L811,538.11Z" transform="translate(-17.96-172.03)" fill="#efb7b9" /><path d="M811,538.11c0,0,25.73-1.09,28.28-1.94s25.12-3.76,25.12-3.76s66.88,4.73,47.83,10.44-44.91,3.27-44.91,3.27-25.25,6.56-29.13,10-32.53,3.52-32.53,3.52L811,538.11Z" transform="translate(-17.96-172.03)" opacity="0.05" /><path d="M719.47,479.49c0,0-23.55,8-12.14,28.4s26.1,30,26.1,30l37.87,26.22c0,0,15.9,9.1,23.18,5.34l11.89-1l2-31.2c0,0-10,7.77-20.88-3s-24.28-18.09-25.37-23.91-28.94-35.83-42.65-30.85Z" transform="translate(-17.96-172.03)" fill="#a36468" /><path d="M793.87,545.52c0,0,12.26,4.37,11.78,4.61s-11.78,4.49-11.78,4.49l.85,16.63l16.63-.91c0,0,6.07-30.28.85-33.32l-18.33-.85v9.35Z" transform="translate(-17.96-172.03)" fill="#67647e" /><path d="M793.87,545.52c0,0,12.26,4.37,11.78,4.61s-11.78,4.49-11.78,4.49l.85,16.63l16.63-.91c0,0,6.07-30.28.85-33.32l-18.33-.85v9.35Z" transform="translate(-17.96-172.03)" opacity="0.1" /><path d="M769,455.7c-1.574576,1.773237-2.869467,3.776271-3.84,5.94-.15.33-.3.65-.44,1-8.93,0-15.35-6.94-20.83-13.15-1-1.15-3.53.59-4.36-.7-.09-.15-.18-.3-.28-.45l.28-.52c3-5.69,5.19-10.55,5.19-10.55s1,.32,2.62.89c7.47,2.64,28.04,10.75,21.66,17.54Z" transform="translate(-17.96-172.03)" opacity="0.1" /><path d="M795,431.55c-.004771,16.511137-13.309576,29.936409-29.82,30.09h-.29c-8.643321.005583-16.870519-3.710866-22.58-10.2-1.009637-1.146217-1.932206-2.366281-2.76-3.65-6.9321-10.800951-6.25592-24.808739,1.684287-34.891778s21.398956-14.02479,33.524187-9.818445s20.251472,15.63611,20.241526,28.470223Z" transform="translate(-17.96-172.03)" fill="#efb7b9" /><path d="M764.38,618.22c0,0-2.29,2.8-4.82,5.41-1.91,2-3.95,3.83-5.26,4.3-3,1.1-16.75,11.53-16.75,11.53s-10.92,7.41-13.71,9.59-12.87.85-12.87.85-9.7-2.12-15.71-6c.584058-1.424889,1.251891-2.813982,2-4.16l6.31-15.3l25-3.23l35.81-2.99Z" transform="translate(-17.96-172.03)" opacity="0.1" /><path d="M763.89,616.28c0,0-2.28,2.8-4.81,5.41-1.91,2-4,3.83-5.26,4.3-3,1.09-16.75,11.53-16.75,11.53s-10.93,7.41-13.72,9.59-12.86.85-12.86.85-13.84-3-18.7-8.5c-3.4-3.83.12-10.93,2.52-14.84c1-1.67,1.85-2.76,1.85-2.76l67.73-5.58Z" transform="translate(-17.96-172.03)" fill="#67647e" /><path d="M781.86,522.21c-8.26-.73-35.45-34-35.45-34l.62-.85l5.7-7.89h13.33l1.47,7.28c10.14,14.22,16.11,24.11,17.73,29.77c1.17,4.12.06,6-3.4,5.69Z" transform="translate(-17.96-172.03)" fill="#67647e" /><path d="M781.86,522.21c-8.26-.73-35.45-34-35.45-34l.62-.85c4.873713,4.473005,9.453257,9.256306,13.71,14.32c19.9,23.42,23.84,16.88,24.52,14.84c1.17,4.12.06,6-3.4,5.69Z" transform="translate(-17.96-172.03)" opacity="0.1" /><path d="M763.89,616.28c0,0-2.28,2.8-4.81,5.41-1.334193.516855-2.741399.820569-4.17.9-3.16-.12-10.44,4.86-10.44,4.86s-12.86-.73-15.29.6-11.78,1.58-11.78,1.58c-17.11,4.88-21.84-2.53-23.09-5c1-1.67,1.85-2.76,1.85-2.76l67.73-5.59Z" transform="translate(-17.96-172.03)" opacity="0.1" /><path d="M793.61,544c0,.47-.09.94-.15,1.39s-.12.91-.19,1.34c-.323287,2.470287-1.063819,4.867716-2.19,7.09-2.18,3.64-8.86,17.84-8.86,17.84l-.45,2.62-.23,1.37-.24,1.35-1.63,9.57-.73,11.05c0,0-4,5.58-5.7,8s-1.46,5.95-.85,8.5-5.58,2.91-5.58,2.91-8.74,4.25-11.9,4.13-10.44,4.84-10.44,4.84-12.86-.73-15.29.61-11.78,1.58-11.78,1.58c-18.32,5.21-22.45-3.65-23.3-5.47s3.64-9.22,3.64-9.22s1-9.35,2.91-10.08s4.25-13.1,4.25-13.1-.73-3.77.85-5.83s1.46-7.89,3.52-10.68-2.18-12.14-1.45-14.57-2.31-12.26-2.07-14.81-.6-4.61-2.55-9.71c-1.66-4.35-1.19-23.68-1-29.22c0-.94.05-1.48.05-1.48s1.7-5.47,6.19-16.39c3.4-8.27,11.05-11.4,14.56-12.42.601857-.181364,1.212669-.331564,1.83-.45.880174.126811,1.744808.344645,2.58.65c3.54,1.19,10.62,4.56,20.72,14c4.46891,4.187128,8.686273,8.634894,12.63,13.32C783.53,529.49,785.39,517,785.39,517s1,2.28,5.69,11.38c2.51,4.84,2.97,10.62,2.53,15.62Z" transform="translate(-17.96-172.03)" fill="#a36468" /><path d="M756.12,478l-22.84-18.22c0,0-8.23,1-11.63,14.82l23.51,20.59L756.12,478Z" transform="translate(-17.96-172.03)" opacity="0.1" /><path d="M756.12,478l-4,5.59-4.06,5.73-3.06,4.49L726.23,478L723,475.2l-1.81-1.54c1.83-7.47,5.08-11.2,7.67-13c1.176183-.899286,2.545722-1.512154,4-1.79L756.12,478Z" transform="translate(-17.96-172.03)" fill="#67647e" /><path d="M913.19,550.13c-19.06,5.7-44.91,3.28-44.91,3.28s-25.25,6.55-29.13,10c-2.5,2.19-15.27,3-24,3.33-4.85.18-8.48.19-8.48.19L812,545.4l3.08-.14c6.91-.32,23.2-1.14,25.2-1.81c2.55-.85,25.12-3.76,25.12-3.76s66.84,4.73,47.79,10.44Z" transform="translate(-17.96-172.03)" fill="#efb7b9" /><path d="M793.27,546.68c-.323287,2.470287-1.063819,4.867716-2.19,7.09-2.18,3.64-8.86,17.84-8.86,17.84L781.3,577c-3.099798-1.151815-6.108327-2.535739-9-4.14l-37.9-26.25c0,0-14.69-9.59-26.1-30s12.14-28.4,12.14-28.4c13.71-5,41.51,25,42.6,30.83s14.45,13.11,25.37,23.91c1.439834,1.461963,3.075404,2.717246,4.86,3.73Z" transform="translate(-17.96-172.03)" opacity="0.1" /><path d="M793.61,544c-.09.95-.2,1.86-.34,2.73-.323287,2.470287-1.063819,4.867716-2.19,7.09-2.18,3.64-8.86,17.84-8.86,17.84l-.45,2.62c-3.277547-1.182527-6.454492-2.627201-9.5-4.32L734.4,543.7c0,0-14.69-9.59-26.1-30s12.14-28.41,12.14-28.41c13.71-5,41.51,25,42.6,30.83s14.45,13.11,25.37,23.92c1.525384,1.572799,3.278253,2.907677,5.2,3.96Z" transform="translate(-17.96-172.03)" opacity="0.1" /><path d="M809.29,544.55l-1.94,31.19-11.9,1c-.260754.136996-.531532.253999-.81.35-7.58,2.78-22.37-5.69-22.37-5.69L734.4,545.15c0,0-14.69-9.59-26.1-30s12.14-28.4,12.14-28.4c13.71-5,41.51,25,42.6,30.83s14.45,13.11,25.37,23.91c1.600546,1.609585,3.442765,2.959196,5.46,4c4.914227,2.581554,10.855738,2.219361,15.42-.94Z" transform="translate(-17.96-172.03)" fill="#a36468" /><path d="M809.29,544.55l-1.94,31.19-11.9,1c-.260754.136996-.531532.253999-.81.35l-.77-15.16c0,0,11.29-4.25,11.78-4.49s-11.78-4.61-11.78-4.61v-7.25c4.930716,2.555163,10.872923,2.158245,15.42-1.03Z" transform="translate(-17.96-172.03)" opacity="0.1" /><path d="M815.1,566.69c-4.85.18-8.48.19-8.48.19L812,545.4l3.08-.14c1.98,3.41,1.13,13.43.02,21.43Z" transform="translate(-17.96-172.03)" opacity="0.1" /><path d="M794.84,552.8c0,0,12.26,4.37,11.78,4.61s-11.78,4.49-11.78,4.49l.85,16.63l16.63-.91c0,0,6.07-30.28.85-33.32l-18.33-.85v9.35Z" transform="translate(-17.96-172.03)" fill="#67647e" /><path d="M722.14,572.71c0,0-4.13,3.88-7.53,4.91l7.53-4.91Z" transform="translate(-17.96-172.03)" opacity="0.1" /><path d="M712.31,584.24c0,0,10.07-.37,11.28-2.43s-11.28,2.43-11.28,2.43Z" transform="translate(-17.96-172.03)" opacity="0.1" /><path d="M707.33,598.68c.61,0,12.74-1.7,13.23-3.28l-13.23,3.28Z" transform="translate(-17.96-172.03)" opacity="0.1" /><path d="M703.57,607.91c4.37-.13,11.77-4.86,11.77-4.86l-11.77,4.86Z" transform="translate(-17.96-172.03)" opacity="0.1" /><path d="M731.85,610.33c0,0,26.34,0,27.55-4.85s-27.55,4.85-27.55,4.85Z" transform="translate(-17.96-172.03)" opacity="0.1" /><path d="M751.63,542.48c.49,0,20.76,0,22.7-2.79s-22.7,2.79-22.7,2.79Z" transform="translate(-17.96-172.03)" opacity="0.1" /><path d="M729.31,463c.164383.991738.251312,1.994768.26,3c.000279,1.11676-.100128,2.231271-.3,3.33-.401088,2.086426-1.031583,4.122121-1.88,6.07l-.21.49c-.3.7-.62,1.38-.95,2.06-1.48581,3.03034-3.239451,5.92184-5.24,8.64-4.56444,6.061478-9.842462,11.551024-15.72,16.35q-1.53,1.29-3.09,2.55c0-.94.05-1.48.05-1.48s1.7-5.47,6.19-16.39c3.4-8.27,11.05-11.4,14.56-12.42l-1.81-1.54c1.83-7.47,5.08-11.2,7.67-13c.16.74.35,1.52.47,2.34Z" transform="translate(-17.96-172.03)" opacity="0.1" /><path d="M790.6,415.92c-.30776.076494-.603772.194225-.88.35-1.9,1.05-2.45,3.54-4,5.11-1.79,1.85-4.59,2.13-7.14,2.45s-5.4.95-6.75,3.14c-1,1.63-.91,3.68-1.27,5.56-.038941.337759-.174338.657155-.39.92-.343673.278764-.77799.421163-1.22.4-5,.35-8.64-1.37-13.32-2.58-2.2-.56-4.76-.49-6.44,1-1.52,1.37-1.94,3.61-1.9,5.66v.18c.215494,1.992307.275675,3.998358.18,6-.467001,3.140656-2.412078,5.86674-5.23,7.33-1.168061.626685-2.457171.995002-3.78,1.08-.510538.053649-1.026369-.022007-1.5-.22.89-1.52,1.74-3,2.52-4.51-5.905339-9.129909-6.429568-20.734445-1.371481-30.359622s14.912649-15.775596,25.781366-16.090641s21.062991,5.254232,26.670115,14.570263l.04.01Z" transform="translate(-17.96-172.03)" opacity="0.1" /><path d="M798.84,412.08c-.365953.818765-.942138,1.526058-1.67,2.05-2.28,1.48-5.55-.15-7.93,1.17-1.91,1.05-2.45,3.54-4,5.11-1.78,1.85-4.58,2.13-7.14,2.45s-5.39.95-6.75,3.14c-1,1.63-.9,3.67-1.27,5.56-.034294.338967-.170238.659655-.39.92-.345014.276295-.778371.418379-1.22.4-5,.35-8.64-1.38-13.32-2.58-2.19-.56-4.75-.49-6.43,1s-1.94,3.62-1.91,5.67c.207826,2.046329.271316,4.104752.19,6.16-.712542,4.537591-4.424581,8.006285-9,8.41-.65479.098713-1.321726-.070725-1.85-.47-.288666-.312398-.497893-.689692-.61-1.1-3.33-9.36-3.3-19.75-7.34-28.83-.651634-1.294279-1.21622-2.630578-1.69-4-.08-.28-.16-.57-.22-.86-.119162-.57729-.199343-1.161944-.24-1.75-.413282.059025-.805203.220606-1.14.47-.118973.101086-.226303.215124-.32.34-.572421.956696-.863555,2.05538-.84,3.17-.747045,12.501947.46766,25.04378,3.6,37.17.955635,3.027652,1.536632,6.161006,1.73,9.33-.111441,3.426623-.928462,6.793431-2.4,9.89-6.27,14.46-18.87,25.05-31.4,34.62c2.601924-2.788843,3.946508-6.522593,3.72-10.33-.440086,1.466474-1.664158,2.563119-3.17,2.84-1.481628.251734-2.996981.228003-4.47-.07c1.92-.63,2.67-2.89,3.15-4.85q1.47-6,2.73-12.11c.894947-3.887897,1.48342-7.840028,1.76-11.82.15-3.38-.11-6.77-.25-10.16-.296773-9.295265.037327-18.599957,1-27.85.74-8,2.08-16.65,7.95-22.11c2.533845-2.140976,5.362901-3.905767,8.4-5.24c0-1,7.33-3,8.3-3.14.402406-.078331.810311-.12514,1.22-.14c1.074771-.156082,2.128011.396768,2.61,1.37.36-.65.76-1.29,1.18-1.9.577581-.839439,1.212424-1.638004,1.9-2.39c3.81-4.2,8.75-7.16,13.16-10.72c1.618594-1.452031,3.373374-2.744675,5.24-3.86c2.440915-1.227388,5.119358-1.909793,7.85-2c4.514238-.255013,9.031039.454039,13.25,2.08c6.08,2.34,11.39,6.54,17.68,8.24c1.552753.336324,3.085208.760336,4.59,1.27c2.91764,1.154583,5.211692,3.488085,6.316363,6.424987s.917132,6.203816-.516363,8.995013l-.04.03Z" transform="translate(-17.96-172.03)" fill="#444053" /><g opacity="0.1"><path d="M697.57,501.65c.72955-1.876883,1.040128-3.890523.91-5.9-.445728,1.466709-1.67243,2.562255-3.18,2.84-.380746.091547-.768996.148446-1.16.17-.5,1.6-1.29,3.14-2.82,3.64c1.472428.301091,2.987741.32821,4.47.08.64237-.156269,1.247373-.438377,1.78-.83Z" transform="translate(-17.96-172.03)" /><path d="M799.56,404.11c-.074084,1.581221-.483106,3.128685-1.2,4.54-.378827.799959-.957436,1.48878-1.68,2-2.27,1.48-5.55-.14-7.93,1.17-1.9,1.05-2.45,3.55-4,5.11-1.79,1.85-4.59,2.14-7.14,2.45s-5.4,1-6.75,3.14c-1,1.63-.91,3.68-1.27,5.56-.01538.398432-.19992.771402-.507324,1.025345s-.708504.364761-1.102676.304655c-5,.35-8.64-1.38-13.32-2.59-2.2-.56-4.76-.49-6.44,1-1.52,1.38-1.94,3.61-1.9,5.67.209632,2.042885.269792,4.098352.18,6.15-.688011,4.552264-4.412054,8.036313-9,8.42-.654616.095297-1.320248-.073809-1.85-.47-.288783-.316175-.497913-.696722-.61-1.11-3.33-9.36-3.31-19.75-7.35-28.82-.642178-1.297309-1.203256-2.633208-1.68-4-.254743-.849456-.412415-1.725041-.47-2.61-.574195.067664-1.098676.358643-1.46.81-.562226.960966-.852583,2.056719-.84,3.17-.465593,8.013349-.130601,16.053159,1,24-.722891-6.688041-.886792-13.424718-.49-20.14-.023555-1.11462.267579-2.213304.84-3.17.353804-.460177.882302-.753385,1.46-.81.055006.884493.209309,1.759995.46,2.61.478083,1.367767,1.042552,2.703789,1.69,4c4,9.08,4,19.46,7.34,28.82.117467.413208.329766.793292.62,1.11.511224.429265,1.17706.628292,1.84.55c4.575419-.403715,8.287458-3.872409,9-8.41.081316-2.055248.017826-4.113671-.19-6.16c0-2.06.39-4.29,1.91-5.67c1.68-1.52,4.24-1.58,6.43-1c4.68,1.2,8.3,2.93,13.32,2.58.441629.018379.874986-.123705,1.22-.4.219474-.26439.355244-.588148.39-.93.37-1.88.26-3.93,1.27-5.55c1.36-2.19,4.2-2.83,6.75-3.15s5.36-.59,7.15-2.44c1.51-1.57,2.05-4.06,4-5.12c2.37-1.31,5.65.32,7.93-1.16.727862-.523942,1.304047-1.231235,1.67-2.05c1.315202-2.613218,1.569589-5.633615.71-8.43Z" transform="translate(-17.96-172.03)" /><path d="M728.6,461.6c-.110301,3.425643-.923813,6.792018-2.39,9.89-5.61,12.93-16.29,22.77-27.44,31.54-.471811,2.616431-1.678873,5.044429-3.48,7c12.52-9.56,25.14-20.15,31.4-34.61c1.471538-3.096569,2.288559-6.463377,2.4-9.89-.024215-1.463399-.19507-2.920685-.51-4.35.01.1.02.26.02.42Z" transform="translate(-17.96-172.03)" /></g><path d="M729.85,404c-.9,4.14-2.14,9.52-3.07,12.29-.114307-.578112-.194446-1.162459-.24-1.75-.41013.059392-.798725.22102-1.13.47c0-2.91.35-7.24.65-10.48c1.077618-.157447,2.13445.395172,2.62,1.37.32-.64.75-1.28,1.17-1.9Z" transform="translate(-17.96-172.03)" opacity="0.1" /><path d="M729.37,404c-.9,4.14-2.14,9.52-3.07,12.29-.119162-.57729-.199343-1.161944-.24-1.75-.413282.059025-.805203.220606-1.14.47c0-2.91.35-7.24.66-10.48c1.074771-.156082,2.128011.396768,2.61,1.37.36-.64.81-1.28,1.18-1.9Z" transform="translate(-17.96-172.03)" fill="#67647e" /></svg>
