<svg xmlns="http://www.w3.org/2000/svg" xml:space="preserve" viewBox="0 251 1151 400.064" width="1000" height="570">
  <path style="stroke:none;stroke-width:1;stroke-dasharray:none;stroke-linecap:butt;stroke-dashoffset:0;stroke-linejoin:miter;stroke-miterlimit:4;is-custom-font:none;font-file-url:none;fill:#fff;fill-rule:nonzero;opacity:1" transform="matrix(.0869 0 0 -.0869 -.175 768.144)" d="M12173.126 7073.495c-353.096-46.307-612.418-231.538-753.657-539.484-55.569-119.242-105.35-322.996-122.715-493.176-6.946-75.25-19.68-147.027-27.785-157.446-12.735-17.366-47.465-20.838-279.004-25.469l-263.953-5.789-8.104-69.461c-3.473-38.204-10.419-120.4-15.05-181.758l-8.104-113.454h801.123v-45.15c0-45.15 0-45.15-57.884-57.884-87.985-18.524-147.027-54.411-181.758-107.665-32.415-47.465-32.415-50.939-32.415-228.065 1.158-280.162 48.623-413.296 202.596-569.584 99.562-100.719 219.962-167.865 376.25-208.385 118.084-31.257 375.092-41.677 519.803-23.154 356.568 47.465 615.892 233.854 740.923 532.538 33.573 78.724 76.408 243.115 76.408 294.054v31.257l-226.907-2.316-226.907-3.473-19.68-75.25c-23.154-92.615-69.461-173.654-136.608-238.484-173.654-169.023-508.227-188.703-677.25-39.362-97.246 84.511-158.604 247.745-159.762 416.768 0 122.715 79.88 972.461 98.404 1053.499 45.15 188.703 157.446 339.204 303.315 408.665 76.408 35.888 83.354 37.046 235.012 37.046 148.185 0 159.762-2.316 228.065-33.573 131.977-60.2 208.385-172.496 222.277-324.153l6.946-82.196 230.381-3.473 230.381-2.316-6.946 141.238c-9.261 228.065-69.461 382.038-197.966 504.753-84.511 81.038-152.815 122.715-265.111 160.919-159.762 54.411-410.98 74.092-604.315 49.781"/>
  <path style="stroke:none;stroke-width:1;stroke-dasharray:none;stroke-linecap:butt;stroke-dashoffset:0;stroke-linejoin:miter;stroke-miterlimit:4;is-custom-font:none;font-file-url:none;fill:#fff;fill-rule:nonzero;opacity:1" transform="matrix(.0869 0 0 -.0869 -.136 768.135)" d="M8921.17 6457.603c-10.419-84.511-87.985-985.196-87.985-1009.506 0-10.419-12.735-32.415-28.943-47.465l-27.785-28.943h-507.068l-12.735-159.762c-8.104-87.985-13.892-171.339-13.892-185.231v-25.469h798.807v-46.307c0-41.677-3.473-46.307-28.943-46.307-15.05 0-56.727-10.419-91.457-23.154-72.935-27.785-127.347-83.354-144.711-147.027-10.419-38.204-82.196-820.803-82.196-891.422v-26.627h1617.295l16.208 192.177c9.261 105.35 13.892 193.334 11.577 196.808-2.316 2.316-261.638 4.631-576.53 4.631-449.184 0-570.742 3.473-570.742 15.05-1.158 30.099 59.042 721.241 64.831 746.711l4.631 25.469h515.172c420.242 0 515.172 2.316 515.172 15.05 0 16.208 19.68 235.012 27.785 312.577l4.631 42.834H9296.261v33.573c0 19.68 12.735 178.284 28.943 355.412 16.208 175.969 28.943 331.1 28.943 342.677 0 19.68 24.312 20.838 577.688 20.838h578.846l5.789 61.358c8.104 62.516 30.099 307.945 30.099 324.153 0 4.631-364.673 8.104-809.226 8.104h-810.384z"/>
  <path style="stroke:none;stroke-width:1;stroke-dasharray:none;stroke-linecap:butt;stroke-dashoffset:0;stroke-linejoin:miter;stroke-miterlimit:4;is-custom-font:none;font-file-url:none;fill:#fff;fill-rule:nonzero;opacity:1" transform="matrix(.0869 0 0 -.0869 -.088 768.127)" d="M6031.572 6025.785c0-65.989-96.088-1073.18-104.192-1091.703-5.789-13.892-24.312-31.257-41.677-37.046-16.208-6.946-137.766-11.577-269.742-11.577h-239.642l-13.892-164.392c-8.104-91.457-13.892-174.812-13.892-185.231 0-19.68 26.627-20.838 399.404-20.838h399.404v-46.307c0-42.834-2.316-46.307-30.099-46.307-97.246 0-211.857-81.038-235.012-167.865-9.261-38.204-82.196-828.907-82.196-899.527 0-19.68 18.524-20.838 231.538-20.838 127.347 0 231.538 3.473 231.538 9.261 0 23.154 93.773 1100.965 99.562 1134.537l5.789 37.046h1249.149v-46.307c0-42.834-2.316-46.307-30.099-46.307-82.196 0-184.073-59.042-219.962-128.503-11.577-24.312-28.943-169.023-56.727-482.757-21.996-246.589-40.52-454.972-40.52-461.919 0-11.577 53.254-15.05 230.381-15.05h231.538l6.946 61.358c10.419 100.719 225.75 2574.706 225.75 2607.121v28.943H7733.38c-213.015 0-231.538-1.158-231.538-19.68 0-11.577-20.838-258.166-46.307-547.588-42.834-476.968-48.623-529.065-70.619-549.904-21.996-21.996-34.731-23.154-500.123-18.524-262.796 1.158-479.284 5.789-481.599 8.104s17.366 252.377 43.992 556.85 47.465 556.85 47.465 562.639c0 8.104-463.077 11.577-463.077 2.316"/>
  <path style="stroke:none;stroke-width:1;stroke-dasharray:none;stroke-linecap:butt;stroke-dashoffset:0;stroke-linejoin:miter;stroke-miterlimit:4;is-custom-font:none;font-file-url:none;fill:#fff;fill-rule:nonzero;opacity:1" transform="matrix(.0869 0 0 -.0869 -.044 768.12)" d="M3392.036 5540.712c0-75.25-94.931-1078.969-104.192-1095.176-5.789-11.577-19.68-23.154-30.099-27.785-9.261-3.473-129.661-6.946-266.269-6.946-247.745 0-247.745 0-252.377-25.469-5.789-27.785-30.099-292.896-30.099-326.469 0-16.208 41.677-18.524 399.404-18.524h399.404v-45.15c0-45.15 0-45.15-59.042-57.884-32.415-6.946-69.461-18.524-83.354-25.469-39.362-20.838-101.877-82.196-114.612-114.612-9.261-23.154-89.143-850.904-90.299-928.468 0-19.68 18.524-20.838 231.538-20.838 127.347 0 231.538 3.473 231.538 6.946 0 20.838 93.773 1083.599 98.404 1122.961l6.946 48.623 338.046 5.789c430.661 6.946 510.542 24.312 694.614 144.711 192.177 125.031 313.734 341.519 346.149 614.734 34.731 297.526-94.931 567.269-327.627 680.723-151.657 75.25-164.392 76.408-805.753 81.038-517.488 4.631-582.319 3.473-582.319-12.735m1051.184-406.349c133.135-40.52 193.334-138.922 192.177-306.789-1.158-188.703-63.673-306.789-197.966-372.776l-77.566-38.204-298.684-3.473c-164.392-2.316-298.684 0-298.684 5.789-1.158 4.631 13.892 174.812 31.257 378.565l31.257 369.303 279.004-6.946c213.015-4.631 291.738-10.419 339.204-25.469"/>
  <path style="stroke:none;stroke-width:1;stroke-dasharray:none;stroke-linecap:butt;stroke-dashoffset:0;stroke-linejoin:miter;stroke-miterlimit:4;is-custom-font:none;font-file-url:none;fill:#fff;fill-rule:nonzero;opacity:1" transform="matrix(.0869 0 0 -.0869 -.004 768.111)" d="M937.73 5057.954c0-6.946-20.838-252.377-47.465-546.431-42.834-490.861-48.623-537.169-70.619-560.323-23.154-25.469-32.415-26.627-280.162-28.943l-255.85-3.473-13.892-150.499c-6.946-82.196-13.892-164.392-13.892-181.758l-1.158-32.415h798.807v-87.985l-68.303-13.892c-78.724-16.208-153.973-65.989-181.758-120.4-13.892-26.627-28.943-150.499-57.884-476.968-21.996-243.115-39.362-450.342-39.362-460.761 0-19.68 46.307-20.838 810.384-20.838 640.203 0 810.384 3.473 810.384 15.05 0 19.68 20.838 258.166 28.943 324.153l6.946 54.411h-580.003c-318.365 0-578.846 3.473-578.846 9.261 0 19.68 59.042 683.037 64.831 729.346l5.789 48.623h1026.872l5.789 49.781c4.631 26.627 10.419 90.299 13.892 141.238s9.261 112.296 12.735 136.608l6.946 42.834h-516.33c-283.635 0-516.33 3.473-516.33 9.261-1.158 4.631 13.892 173.654 31.257 376.25l31.257 366.989H2522.61l5.789 38.204c6.946 38.204 30.099 305.631 30.099 336.888 0 16.208-79.88 18.524-810.384 18.524-573.058 0-810.384-3.473-810.384-12.735"/>
  <path style="stroke:none;stroke-width:1;stroke-dasharray:none;stroke-linecap:butt;stroke-dashoffset:0;stroke-linejoin:miter;stroke-miterlimit:4;is-custom-font:none;font-file-url:none;fill:#fff;fill-rule:nonzero;opacity:1" transform="matrix(.0869 0 0 -.0869 -.075 768.058)" d="M4586.774 1777.056c-20.838-41.677-37.046-81.038-37.046-86.827 0-6.946 17.366-11.577 39.362-11.577 34.731 0 42.834 8.104 92.615 81.038 28.943 43.992 53.254 83.354 53.254 86.827s-25.469 5.789-55.569 5.789h-55.569z"/>
  <path style="stroke:none;stroke-width:1;stroke-dasharray:none;stroke-linecap:butt;stroke-dashoffset:0;stroke-linejoin:miter;stroke-miterlimit:4;is-custom-font:none;font-file-url:none;fill:#fff;fill-rule:nonzero;opacity:1" transform="matrix(.0869 0 0 -.0869 -.08 768.055)" d="M5213.085 1643.922c-246.589-50.939-398.246-309.103-318.365-539.484 83.354-238.484 409.823-298.684 603.157-109.981 31.257 30.099 64.831 71.777 75.25 91.457l18.524 35.888-48.623 25.469c-30.099 15.05-50.939 19.68-53.254 12.735s-18.524-33.573-38.204-59.042c-93.773-130.819-307.945-142.396-407.507-24.312-62.516 74.092-69.461 202.596-16.208 307.945 34.731 69.461 67.146 99.562 135.45 130.819 114.612 52.096 251.219 19.68 310.261-71.777l32.415-52.096 45.15 23.154c25.469 13.892 48.623 25.469 50.939 27.785 9.261 9.261-60.2 109.981-94.931 136.608-77.566 60.2-195.65 85.669-294.054 64.831"/>
  <path style="stroke:none;stroke-width:1;stroke-dasharray:none;stroke-linecap:butt;stroke-dashoffset:0;stroke-linejoin:miter;stroke-miterlimit:4;is-custom-font:none;font-file-url:none;fill:#fff;fill-rule:nonzero;opacity:1" transform="matrix(.0869 0 0 -.0869 -.093 768.055)" d="M6024.627 1643.922c-171.339-35.888-296.37-169.023-329.942-348.465-54.411-298.684 238.484-504.753 525.591-369.303 235.012 111.139 307.945 451.5 133.135 626.311-75.25 75.25-217.646 114.612-328.785 91.457m178.284-126.189c86.827-45.15 129.661-120.4 129.661-229.223 0-116.927-74.092-232.696-175.969-274.373-24.312-10.419-75.25-18.524-114.612-18.524-143.554 0-233.854 93.773-233.854 240.8 0 46.307 8.104 96.088 19.68 123.873 25.469 60.2 92.615 129.661 151.657 157.446 62.516 28.943 166.707 28.943 223.435 0"/>
  <path style="stroke:none;stroke-width:1;stroke-dasharray:none;stroke-linecap:butt;stroke-dashoffset:0;stroke-linejoin:miter;stroke-miterlimit:4;is-custom-font:none;font-file-url:none;fill:#fff;fill-rule:nonzero;opacity:1" transform="matrix(.0869 0 0 -.0869 -.132 768.055)" d="M8065.637 1282.722c-17.366-206.069-31.257-383.196-31.257-394.772 0-16.208 8.104-20.838 32.415-17.366l31.257 3.473 31.257 347.307c40.52 454.972 40.52 434.134 0 434.134h-32.415z"/>
  <path style="stroke:none;stroke-width:1;stroke-dasharray:none;stroke-linecap:butt;stroke-dashoffset:0;stroke-linejoin:miter;stroke-miterlimit:4;is-custom-font:none;font-file-url:none;fill:#0081a5;fill-rule:nonzero;opacity:1" transform="matrix(.0869 0 0 -.0869 -.162 768.055)" d="M10110.12 1626.556c-170.181-52.096-279.004-192.177-290.581-371.619-6.946-116.927 18.524-188.703 94.931-265.111 71.777-71.777 140.08-98.404 254.692-98.404 100.719 0 145.869 11.577 226.907 60.2 57.884 34.731 150.499 136.608 150.499 165.55 0 6.946-30.099 26.627-65.989 45.15-56.727 27.785-67.146 28.943-75.25 13.892-91.457-163.234-319.523-180.6-399.404-30.099-86.827 164.392 63.673 369.303 253.534 343.835 54.411-6.946 97.246-34.731 130.819-85.669l23.154-34.731 72.935 35.888c39.362 18.524 71.777 40.52 71.777 48.623 0 21.996-64.831 104.192-104.192 131.977-77.566 55.569-237.326 74.092-343.835 40.52"/>
  <path style="stroke:none;stroke-width:1;stroke-dasharray:none;stroke-linecap:butt;stroke-dashoffset:0;stroke-linejoin:miter;stroke-miterlimit:4;is-custom-font:none;font-file-url:none;fill:#fff;fill-rule:nonzero;opacity:1" transform="matrix(.0869 0 0 -.0869 -.01 768.054)" d="M636.73 1617.295c0-8.104-12.735-160.919-28.943-338.046-38.204-429.503-40.52-390.142 26.627-385.511l54.411 3.473 12.735 138.922c8.104 76.408 13.892 148.185 15.05 159.762 1.158 17.366 17.366 19.68 175.969 19.68h175.969l-8.104-81.038c-3.473-43.992-10.419-116.927-13.892-162.077l-8.104-81.038h54.411c32.415 0 55.569 5.789 59.042 15.05 4.631 13.892 63.673 664.515 63.673 706.192 0 16.208-10.419 19.68-56.727 19.68h-55.569l-8.104-100.719c-4.631-56.727-10.419-123.873-13.892-150.499l-6.946-49.781H725.873l8.104 84.511c4.631 45.15 10.419 113.454 15.05 150.499l6.946 65.989h-60.199c-40.52 0-59.042-4.631-59.042-15.05"/>
  <path style="stroke:none;stroke-width:1;stroke-dasharray:none;stroke-linecap:butt;stroke-dashoffset:0;stroke-linejoin:miter;stroke-miterlimit:4;is-custom-font:none;font-file-url:none;fill:#fff;fill-rule:nonzero;opacity:1" transform="matrix(.0869 0 0 -.0869 -.021 768.055)" d="M1413.541 1275.777c-83.354-195.65-151.657-362.357-151.657-370.461 0-10.419 16.208-13.892 54.411-11.577l53.254 3.473 32.415 75.25 31.257 75.25 173.654 3.473 173.654 3.473 13.892-61.358c21.996-94.931 28.943-101.877 86.827-101.877 28.943 0 52.096 3.473 52.096 9.261 0 4.631-39.362 171.339-89.143 370.461l-90.299 361.2h-188.703zm291.738 87.985c24.312-97.246 42.834-180.6 42.834-185.231 0-5.789-59.042-9.261-131.977-9.261h-131.977l74.092 174.812c81.038 191.019 83.354 195.65 94.931 195.65 4.631 0 27.785-79.88 52.096-175.969"/>
  <path style="stroke:none;stroke-width:1;stroke-dasharray:none;stroke-linecap:butt;stroke-dashoffset:0;stroke-linejoin:miter;stroke-miterlimit:4;is-custom-font:none;font-file-url:none;fill:#fff;fill-rule:nonzero;opacity:1" transform="matrix(.0869 0 0 -.0869 -.033 768.055)" d="M2068.795 1404.28c-24.312-279.004-24.312-317.208-2.316-371.619 67.146-159.762 290.581-199.122 446.869-79.88 85.669 64.831 103.034 113.454 127.347 375.092 30.099 328.785 33.573 304.473-33.573 304.473h-55.569l-20.838-251.219c-12.735-164.392-26.627-266.269-38.204-290.581-50.939-108.823-206.069-137.766-289.423-53.254-34.731 33.573-38.204 42.834-38.204 109.981 0 40.52 8.104 149.343 17.366 241.958s17.366 185.231 17.366 206.069c0 37.046 0 37.046-55.569 37.046h-55.569z"/>
  <path style="stroke:none;stroke-width:1;stroke-dasharray:none;stroke-linecap:butt;stroke-dashoffset:0;stroke-linejoin:miter;stroke-miterlimit:4;is-custom-font:none;font-file-url:none;fill:#fff;fill-rule:nonzero;opacity:1" transform="matrix(.0869 0 0 -.0869 -.045 768.055)" d="M2771.514 1592.983c-3.473-21.996-3.473-45.15 1.158-52.096 4.631-8.104 52.096-12.735 116.927-12.735 105.35 0 108.823-1.158 108.823-25.469 0-15.05-10.419-138.922-23.154-275.53s-23.154-268.585-23.154-291.738v-43.992h52.096c43.992 0 52.096 3.473 56.727 26.627 5.789 23.154 53.254 562.639 53.254 595.054 0 10.419 34.731 15.05 119.242 17.366l118.084 3.473 3.473 49.781 3.473 48.623h-578.846z"/>
  <path style="stroke:none;stroke-width:1;stroke-dasharray:none;stroke-linecap:butt;stroke-dashoffset:0;stroke-linejoin:miter;stroke-miterlimit:4;is-custom-font:none;font-file-url:none;fill:#fff;fill-rule:nonzero;opacity:1" transform="matrix(.0869 0 0 -.0869 -.056 768.055)" d="M3484.652 1606.876c0-15.05-12.735-172.496-28.943-350.781-16.208-177.126-28.943-332.258-28.943-343.835 0-19.68 13.892-20.838 229.223-18.524l228.065 3.473 3.473 49.781 3.473 48.623h-348.465l4.631 26.627c3.473 13.892 9.261 65.989 12.735 115.769l8.104 89.143h296.37l4.631 46.307 4.631 46.307h-299.842l8.104 70.619c3.473 39.362 6.946 86.827 6.946 104.192v33.573h166.707c163.234 0 166.707 0 173.654 26.627 3.473 13.892 6.946 37.046 6.946 52.096v25.469h-451.5z"/>
  <path style="stroke:none;stroke-width:1;stroke-dasharray:none;stroke-linecap:butt;stroke-dashoffset:0;stroke-linejoin:miter;stroke-miterlimit:4;is-custom-font:none;font-file-url:none;fill:#fff;fill-rule:nonzero;opacity:1" transform="matrix(.0869 0 0 -.0869 -.07 768.055)" d="M4352.92 1618.453c0-8.104-12.735-158.604-28.943-333.415s-28.943-335.73-28.943-355.412v-38.204h224.592c222.277 0 224.592 0 231.538 26.627 3.473 13.892 6.946 37.046 6.946 52.096 0 25.469-1.158 25.469-173.654 25.469h-173.654l5.789 67.146c3.473 35.888 9.261 87.985 12.735 115.769l5.789 48.623h299.842v92.615h-289.423v43.992c0 23.154 3.473 70.619 6.946 104.192l8.104 60.2h165.55c134.292 0 166.707 3.473 166.707 16.208 0 8.104 3.473 32.415 6.946 52.096l8.104 35.888h-228.065c-173.654 0-226.907-3.473-226.907-13.892"/>
  <path style="stroke:none;stroke-width:1;stroke-dasharray:none;stroke-linecap:butt;stroke-dashoffset:0;stroke-linejoin:miter;stroke-miterlimit:4;is-custom-font:none;font-file-url:none;fill:#fff;fill-rule:nonzero;opacity:1" transform="matrix(.0869 0 0 -.0869 -.108 768.055)" d="M6620.837 1630.029c-5.789-16.208-64.831-723.557-60.2-729.346 2.316-5.789 103.034-9.261 222.277-9.261 216.488 0 218.804 0 225.75 26.627 3.473 13.892 6.946 39.362 6.946 57.884v31.257h-338.046l8.104 84.511c4.631 45.15 16.208 186.389 27.785 312.577l19.68 228.065h-55.569c-30.099 0-55.569-1.158-56.727-2.316"/>
  <path style="stroke:none;stroke-width:1;stroke-dasharray:none;stroke-linecap:butt;stroke-dashoffset:0;stroke-linejoin:miter;stroke-miterlimit:4;is-custom-font:none;font-file-url:none;fill:#fff;fill-rule:nonzero;opacity:1" transform="matrix(.0869 0 0 -.0869 -.117 768.055)" d="M7189.264 1623.084c0-5.789-12.735-155.13-28.943-331.1-16.208-177.126-28.943-339.204-28.943-361.2v-39.362h224.592c222.277 0 224.592 0 231.538 26.627 3.473 13.892 6.946 37.046 6.946 52.096 0 25.469-1.158 25.469-174.812 25.469h-173.654l6.946 67.146c3.473 35.888 9.261 87.985 12.735 115.769l5.789 48.623H7571.3v92.615h-289.423v43.992c0 23.154 3.473 70.619 6.946 104.192l8.104 60.2h165.55c165.55 0 166.707 0 166.707 26.627 0 13.892 3.473 37.046 6.946 52.096l6.946 25.469h-226.907c-125.031 0-226.907-4.631-226.907-9.261"/>
  <path style="stroke:none;stroke-width:1;stroke-dasharray:none;stroke-linecap:butt;stroke-dashoffset:0;stroke-linejoin:miter;stroke-miterlimit:4;is-custom-font:none;font-file-url:none;fill:#0081a5;fill-rule:nonzero;opacity:1" transform="matrix(.0869 0 0 -.0869 -.14 768.055)" d="M8549.552 1618.453c-2.316-8.104-5.789-42.834-8.104-76.408l-3.473-60.2h225.75l-5.789-31.257c-3.473-18.524-13.892-130.819-23.154-252.377-10.419-120.4-20.838-237.326-24.312-257.008l-5.789-38.204h82.196c56.727 0 81.038 4.631 81.038 15.05 0 6.946 10.419 126.189 23.154 262.796s23.154 260.48 23.154 275.53c0 24.312 3.473 25.469 115.769 25.469h115.769v49.781c0 26.627 3.473 60.2 6.946 75.25l6.946 25.469h-302.157c-231.538 0-304.473-3.473-307.945-13.892"/>
  <path style="stroke:none;stroke-width:1;stroke-dasharray:none;stroke-linecap:butt;stroke-dashoffset:0;stroke-linejoin:miter;stroke-miterlimit:4;is-custom-font:none;font-file-url:none;fill:#0081a5;fill-rule:nonzero;opacity:1" transform="matrix(.0869 0 0 -.0869 -.151 768.055)" d="M9280.054 1606.876c-3.473-15.05-16.208-159.762-30.099-321.838-12.735-162.077-26.627-314.892-30.099-338.046L9212.91 903h486.231l4.631 69.461 3.473 69.461H9388.88v38.204c0 19.68 3.473 56.727 6.946 81.038l8.104 42.834h274.373v43.992c0 23.154 3.473 54.411 6.946 69.461 6.946 25.469 6.946 25.469-134.292 25.469h-142.396l8.104 43.992c3.473 23.154 6.946 54.411 6.946 69.461 0 25.469 2.316 25.469 156.288 25.469 144.711 0 156.288 1.158 156.288 21.996 0 11.577 3.473 45.15 6.946 75.25l8.104 53.254h-232.696c-232.696 0-233.854 0-238.484-25.469"/>
  <path style="stroke:none;stroke-width:1;stroke-dasharray:none;stroke-linecap:butt;stroke-dashoffset:0;stroke-linejoin:miter;stroke-miterlimit:4;is-custom-font:none;font-file-url:none;fill:#0081a5;fill-rule:nonzero;opacity:1" transform="matrix(.0869 0 0 -.0869 -.176 768.054)" d="M10720.223 1623.084c0-4.631-12.735-155.13-28.943-332.258-38.204-435.292-43.992-387.827 45.15-387.827 86.827 0 82.196-9.261 94.931 177.126l6.946 112.296h289.423l-6.946-42.834c-3.473-24.312-9.261-89.143-13.892-144.711l-6.946-101.877h76.408c69.461 0 76.408 2.316 81.038 26.627 3.473 13.892 16.208 158.604 30.099 320.68 12.735 162.077 26.627 314.892 30.099 339.204l6.946 42.834h-160.916l-8.104-83.354c-4.631-46.307-10.419-112.296-13.892-144.711l-6.946-61.358h-279.004l8.104 119.242c4.631 64.831 11.577 129.661 15.05 144.711 5.789 24.312 3.473 25.469-76.408 25.469-45.15 0-82.196-4.631-82.196-9.261"/>
  <path style="stroke:none;stroke-width:1;stroke-dasharray:none;stroke-linecap:butt;stroke-dashoffset:0;stroke-linejoin:miter;stroke-miterlimit:4;is-custom-font:none;font-file-url:none;fill:#fff;fill-rule:nonzero;opacity:1" transform="matrix(.0869 0 0 -.0869 -.002 768.036)" d="M111.139 518.646c-3.473-8.104-8.104-59.042-11.577-113.454-4.631-54.411-10.419-130.819-15.05-170.181l-6.946-72.935h2050.271l6.946 43.992c3.473 23.154 9.261 84.511 12.735 135.45s9.261 114.612 13.892 142.396l5.789 48.623H1141.484c-811.542 0-1026.872-3.473-1030.346-13.892"/>
</svg>
