<?xml version="1.0" standalone="no"?>
<!DOCTYPE svg PUBLIC "-//W3C//DTD SVG 20010904//EN"
 "http://www.w3.org/TR/2001/REC-SVG-20010904/DTD/svg10.dtd">
<svg version="1.0" xmlns="http://www.w3.org/2000/svg"
 width="1151.000000pt" height="617.000000pt" viewBox="0 0 1151.000000 617.000000"
 preserveAspectRatio="xMidYMid meet">

<g transform="translate(0.000000,617.000000) scale(0.100000,-0.100000)"
fill="#000000" stroke="none">
<path d="M10515 6110 c-305 -40 -529 -200 -651 -466 -48 -103 -91 -279 -106
-426 -6 -65 -17 -127 -24 -136 -11 -15 -41 -18 -241 -22 l-228 -5 -7 -60 c-3
-33 -9 -104 -13 -157 l-7 -98 346 0 346 0 0 -39 c0 -39 0 -39 -50 -50 -76 -16
-127 -47 -157 -93 -28 -41 -28 -44 -28 -197 1 -242 42 -357 175 -492 86 -87
190 -145 325 -180 102 -27 324 -36 449 -20 308 41 532 202 640 460 29 68 66
210 66 254 l0 27 -196 -2 -196 -3 -17 -65 c-20 -80 -60 -150 -118 -206 -150
-146 -439 -163 -585 -34 -84 73 -137 214 -138 360 0 106 69 840 85 910 39 163
136 293 262 353 66 31 72 32 203 32 128 0 138 -2 197 -29 114 -52 180 -149
192 -280 l6 -71 199 -3 199 -2 -6 122 c-8 197 -60 330 -171 436 -73 70 -132
106 -229 139 -138 47 -355 64 -522 43z"/>
<path d="M7706 5578 c-9 -73 -76 -851 -76 -872 0 -9 -11 -28 -25 -41 l-24 -25
-219 0 -219 0 -11 -138 c-7 -76 -12 -148 -12 -160 l0 -22 345 0 345 0 0 -40
c0 -36 -3 -40 -25 -40 -13 0 -49 -9 -79 -20 -63 -24 -110 -72 -125 -127 -9
-33 -71 -709 -71 -770 l0 -23 698 0 699 0 14 166 c8 91 12 167 10 170 -2 2
-226 4 -498 4 -388 0 -493 3 -493 13 -1 26 51 623 56 645 l4 22 445 0 c363 0
445 2 445 13 0 14 17 203 24 270 l4 37 -444 0 -444 0 0 29 c0 17 11 154 25
307 14 152 25 286 25 296 0 17 21 18 499 18 l500 0 5 53 c7 54 26 266 26 280
0 4 -315 7 -699 7 l-700 0 -5 -52z"/>
<path d="M5210 5205 c0 -57 -83 -927 -90 -943 -5 -12 -21 -27 -36 -32 -14 -6
-119 -10 -233 -10 l-207 0 -12 -142 c-7 -79 -12 -151 -12 -160 0 -17 23 -18
345 -18 l345 0 0 -40 c0 -37 -2 -40 -26 -40 -84 0 -183 -70 -203 -145 -8 -33
-71 -716 -71 -777 0 -17 16 -18 200 -18 110 0 200 3 200 8 0 20 81 951 86 980
l5 32 539 0 540 0 0 -40 c0 -37 -2 -40 -26 -40 -71 0 -159 -51 -190 -111 -10
-21 -25 -146 -49 -417 -19 -213 -35 -393 -35 -399 0 -10 46 -13 199 -13 l200
0 6 53 c9 87 195 2224 195 2252 l0 25 -200 0 c-184 0 -200 -1 -200 -17 0 -10
-18 -223 -40 -473 -37 -412 -42 -457 -61 -475 -19 -19 -30 -20 -432 -16 -227
1 -414 5 -416 7 -2 2 15 218 38 481 23 263 41 481 41 486 0 7 -400 10 -400 2z"/>
<path d="M2930 4786 c0 -65 -82 -932 -90 -946 -5 -10 -17 -20 -26 -24 -8 -3
-112 -6 -230 -6 -214 0 -214 0 -218 -22 -5 -24 -26 -253 -26 -282 0 -14 36
-16 345 -16 l345 0 0 -39 c0 -39 0 -39 -51 -50 -28 -6 -60 -16 -72 -22 -34
-18 -88 -71 -99 -99 -8 -20 -77 -735 -78 -802 0 -17 16 -18 200 -18 110 0 200
3 200 6 0 18 81 936 85 970 l6 42 292 5 c372 6 441 21 600 125 166 108 271
295 299 531 30 257 -82 490 -283 588 -131 65 -142 66 -696 70 -447 4 -503 3
-503 -11z m908 -351 c115 -35 167 -120 166 -265 -1 -163 -55 -265 -171 -322
l-67 -33 -258 -3 c-142 -2 -258 0 -258 5 -1 4 12 151 27 327 l27 319 241 -6
c184 -4 252 -9 293 -22z"/>
<path d="M810 4369 c0 -6 -18 -218 -41 -472 -37 -424 -42 -464 -61 -484 -20
-22 -28 -23 -242 -25 l-221 -3 -12 -130 c-6 -71 -12 -142 -12 -157 l-1 -28
345 0 345 0 0 -38 0 -38 -59 -12 c-68 -14 -133 -57 -157 -104 -12 -23 -25
-130 -50 -412 -19 -210 -34 -389 -34 -398 0 -17 40 -18 700 -18 553 0 700 3
700 13 0 17 18 223 25 280 l6 47 -501 0 c-275 0 -500 3 -500 8 0 17 51 590 56
630 l5 42 443 0 444 0 5 43 c4 23 9 78 12 122 3 44 8 97 11 118 l6 37 -446 0
c-245 0 -446 3 -446 8 -1 4 12 150 27 325 l27 317 498 0 497 0 5 33 c6 33 26
264 26 291 0 14 -69 16 -700 16 -495 0 -700 -3 -700 -11z"/>
<path d="M3962 1535 c-18 -36 -32 -70 -32 -75 0 -6 15 -10 34 -10 30 0 37 7
80 70 25 38 46 72 46 75 0 3 -22 5 -48 5 l-48 0 -32 -65z"/>
<path d="M4503 1420 c-213 -44 -344 -267 -275 -466 72 -206 354 -258 521 -95
27 26 56 62 65 79 l16 31 -42 22 c-26 13 -44 17 -46 11 -2 -6 -16 -29 -33 -51
-81 -113 -266 -123 -352 -21 -54 64 -60 175 -14 266 30 60 58 86 117 113 99
45 217 17 268 -62 l28 -45 39 20 c22 12 42 22 44 24 8 8 -52 95 -82 118 -67
52 -169 74 -254 56z"/>
<path d="M5204 1420 c-148 -31 -256 -146 -285 -301 -47 -258 206 -436 454
-319 203 96 266 390 115 541 -65 65 -188 99 -284 79z m154 -109 c75 -39 112
-104 112 -198 0 -101 -64 -201 -152 -237 -21 -9 -65 -16 -99 -16 -124 0 -202
81 -202 208 0 40 7 83 17 107 22 52 80 112 131 136 54 25 144 25 193 0z"/>
<path d="M6967 1108 c-15 -178 -27 -331 -27 -341 0 -14 7 -18 28 -15 l27 3 27
300 c35 393 35 375 0 375 l-28 0 -27 -322z"/>
<path d="M8733 1405 c-147 -45 -241 -166 -251 -321 -6 -101 16 -163 82 -229
62 -62 121 -85 220 -85 87 0 126 10 196 52 50 30 130 118 130 143 0 6 -26 23
-57 39 -49 24 -58 25 -65 12 -79 -141 -276 -156 -345 -26 -75 142 55 319 219
297 47 -6 84 -30 113 -74 l20 -30 63 31 c34 16 62 35 62 42 0 19 -56 90 -90
114 -67 48 -205 64 -297 35z"/>
<path d="M550 1397 c0 -7 -11 -139 -25 -292 -33 -371 -35 -337 23 -333 l47 3
11 120 c7 66 12 128 13 138 1 15 15 17 152 17 l152 0 -7 -70 c-3 -38 -9 -101
-12 -140 l-7 -70 47 0 c28 0 48 5 51 13 4 12 55 574 55 610 0 14 -9 17 -49 17
l-48 0 -7 -87 c-4 -49 -9 -107 -12 -130 l-6 -43 -150 0 -151 0 7 73 c4 39 9
98 13 130 l6 57 -52 0 c-35 0 -51 -4 -51 -13z"/>
<path d="M1221 1102 c-72 -169 -131 -313 -131 -320 0 -9 14 -12 47 -10 l46 3
28 65 27 65 150 3 150 3 12 -53 c19 -82 25 -88 75 -88 25 0 45 3 45 8 0 4 -34
148 -77 320 l-78 312 -81 0 -82 0 -131 -308z m252 76 c21 -84 37 -156 37 -160
0 -5 -51 -8 -114 -8 l-114 0 64 151 c70 165 72 169 82 169 4 0 24 -69 45 -152z"/>
<path d="M1787 1213 c-21 -241 -21 -274 -2 -321 58 -138 251 -172 386 -69 74
56 89 98 110 324 26 284 29 263 -29 263 l-48 0 -18 -217 c-11 -142 -23 -230
-33 -251 -44 -94 -178 -119 -250 -46 -30 29 -33 37 -33 95 0 35 7 129 15 209
8 80 15 160 15 178 0 32 0 32 -48 32 l-48 0 -17 -197z"/>
<path d="M2394 1376 c-3 -19 -3 -39 1 -45 4 -7 45 -11 101 -11 91 0 94 -1 94
-22 0 -13 -9 -120 -20 -238 -11 -118 -20 -232 -20 -252 l0 -38 45 0 c38 0 45
3 49 23 5 20 46 486 46 514 0 9 30 13 103 15 l102 3 3 43 3 42 -250 0 -250 0
-7 -34z"/>
<path d="M3010 1388 c0 -13 -11 -149 -25 -303 -14 -153 -25 -287 -25 -297 0
-17 12 -18 198 -16 l197 3 3 43 3 42 -151 0 -150 0 4 23 c3 12 8 57 11 100 l7
77 128 0 128 0 4 40 4 40 -130 0 -129 0 7 61 c3 34 6 75 6 90 l0 29 144 0
c141 0 144 0 150 23 3 12 6 32 6 45 l0 22 -195 0 -195 0 0 -22z"/>
<path d="M3760 1398 c0 -7 -11 -137 -25 -288 -14 -151 -25 -290 -25 -307 l0
-33 194 0 c192 0 194 0 200 23 3 12 6 32 6 45 0 22 -1 22 -150 22 l-150 0 5
58 c3 31 8 76 11 100 l5 42 130 0 129 0 0 40 0 40 -125 0 -125 0 0 38 c0 20 3
61 6 90 l7 52 143 0 c116 0 144 3 144 14 0 7 3 28 6 45 l7 31 -197 0 c-150 0
-196 -3 -196 -12z"/>
<path d="M5719 1408 c-5 -14 -56 -625 -52 -630 2 -5 89 -8 192 -8 187 0 189 0
195 23 3 12 6 34 6 50 l0 27 -146 0 -146 0 7 73 c4 39 14 161 24 270 l17 197
-48 0 c-26 0 -48 -1 -49 -2z"/>
<path d="M6210 1402 c0 -5 -11 -134 -25 -286 -14 -153 -25 -293 -25 -312 l0
-34 194 0 c192 0 194 0 200 23 3 12 6 32 6 45 0 22 -1 22 -151 22 l-150 0 6
58 c3 31 8 76 11 100 l5 42 130 0 129 0 0 40 0 40 -125 0 -125 0 0 38 c0 20 3
61 6 90 l7 52 143 0 c143 0 144 0 144 23 0 12 3 32 6 45 l6 22 -196 0 c-108 0
-196 -4 -196 -8z"/>
<path d="M7385 1398 c-2 -7 -5 -37 -7 -66 l-3 -52 97 0 98 0 -5 -27 c-3 -16
-12 -113 -20 -218 -9 -104 -18 -205 -21 -222 l-5 -33 71 0 c49 0 70 4 70 13 0
6 9 109 20 227 11 118 20 225 20 238 0 21 3 22 100 22 l100 0 0 43 c0 23 3 52
6 65 l6 22 -261 0 c-200 0 -263 -3 -266 -12z"/>
<path d="M8016 1388 c-3 -13 -14 -138 -26 -278 -11 -140 -23 -272 -26 -292
l-6 -38 210 0 210 0 4 60 3 60 -137 0 -138 0 0 33 c0 17 3 49 6 70 l7 37 118
0 119 0 0 38 c0 20 3 47 6 60 6 22 6 22 -116 22 l-123 0 7 38 c3 20 6 47 6 60
0 22 2 22 135 22 125 0 135 1 135 19 0 10 3 39 6 65 l7 46 -201 0 c-201 0
-202 0 -206 -22z"/>
<path d="M9260 1402 c0 -4 -11 -134 -25 -287 -33 -376 -38 -335 39 -335 75 0
71 -8 82 153 l6 97 125 0 125 0 -6 -37 c-3 -21 -8 -77 -12 -125 l-6 -88 66 0
c60 0 66 2 70 23 3 12 14 137 26 277 11 140 23 272 26 293 l6 37 -70 0 -69 0
-7 -72 c-4 -40 -9 -97 -12 -125 l-6 -53 -120 0 -121 0 7 103 c4 56 10 112 13
125 5 21 3 22 -66 22 -39 0 -71 -4 -71 -8z"/>
<path d="M96 448 c-3 -7 -7 -51 -10 -98 -4 -47 -9 -113 -13 -147 l-6 -63 886
0 885 0 6 38 c3 20 8 73 11 117 3 44 8 99 12 123 l5 42 -886 0 c-701 0 -887
-3 -890 -12z"/>
</g>
</svg>
